<?xml version="1.0" standalone="no"?>
<!DOCTYPE svg PUBLIC "-//W3C//DTD SVG 1.1//EN" "http://www.w3.org/Graphics/SVG/1.1/DTD/svg11.dtd" >
<svg>
<metadata>
Created by FontForge 20090622 at Thu Feb 11 20:49:19 2016
 By ffonts
Copyright &#194;&#169; 2014 by Ren&#195;&#169; Bieder. All rights reserved.
</metadata>
<defs>
<font id="Choplin-Medium-DEMO" horiz-adv-x="839" >
  <font-face 
    font-family="Choplin Medium-DEMO"
    font-weight="550"
    font-stretch="normal"
    units-per-em="1000"
    panose-1="0 0 6 0 0 0 0 0 0 0"
    ascent="800"
    descent="-200"
    x-height="473"
    cap-height="680"
    bbox="-17 -258 2295 891"
    underline-thickness="50"
    underline-position="-50"
    stemh="96"
    stemv="115"
    unicode-range="U+0020-U+FB02"
  />
<missing-glyph horiz-adv-x="870" 
d="M770 680v-680h-670v680h670zM700 610h-481l481 -481v481zM170 70h477l-477 477v-477z" />
    <glyph glyph-name="fi" unicode="fi" horiz-adv-x="773" 
d="M737 106v-106h-267v106h76v261h-288v-261h114v-106h-305v106h76v261h-133v106h133v55c0 142 86 231 212 231c72 0 110 -12 181 -30l-22 -99c-53 13 -88 23 -145 23c-70 0 -111 -47 -111 -125v-55h403v-367h76z" />
    <glyph glyph-name="fl" unicode="fl" horiz-adv-x="753" 
d="M717 106v-106h-267v106h76v505c-48 32 -88 42 -127 42c-95 0 -141 -56 -141 -132v-48h179v-106h-179v-261h114v-106h-305v106h76v261h-133v106h133v48c0 147 102 238 249 238c56 0 110 -14 178 -50h71v-603h76z" />
    <glyph glyph-name="f_f" unicode="ff" horiz-adv-x="838" 
d="M654 473h179v-106h-179v-261h114v-106h-305v106h76v261h-281v-261h114v-106h-305v106h76v261h-133v106h133v48c0 147 102 238 249 238c61 0 120 -17 196 -60c34 38 83 60 143 60c32 0 72 -5 109 -15l-16 -95c-24 5 -53 9 -71 9c-60 0 -99 -38 -99 -107v-78zM539 473v78
c0 17 1 33 4 49c-56 40 -100 53 -144 53c-95 0 -141 -56 -141 -132v-48h281z" />
    <glyph glyph-name="f_f_i" unicode="ffi" horiz-adv-x="1169" 
d="M1133 106v-106h-267v106h76v261h-288v-261h114v-106h-305v106h76v261h-281v-261h114v-106h-305v106h76v261h-133v106h133v48c0 147 102 238 249 238c63 0 124 -18 204 -64c37 41 91 64 155 64c72 0 110 -12 181 -30l-22 -99c-53 13 -88 23 -145 23
c-70 0 -111 -47 -111 -125v-55h403v-367h76zM539 473v55c0 25 3 48 8 69c-58 43 -103 56 -148 56c-95 0 -141 -56 -141 -132v-48h281z" />
    <glyph glyph-name="f_f_l" unicode="ffl" horiz-adv-x="1149" 
d="M1113 106v-106h-267v106h76v505c-48 32 -88 42 -127 42c-95 0 -141 -56 -141 -132v-48h179v-106h-179v-261h114v-106h-305v106h76v261h-281v-261h114v-106h-305v106h76v261h-133v106h133v48c0 147 102 238 249 238c65 0 127 -18 211 -69c44 44 108 69 185 69
c56 0 110 -14 178 -50h71v-603h76zM539 473v48c0 27 3 52 10 75c-59 43 -105 57 -150 57c-95 0 -141 -56 -141 -132v-48h281z" />
    <glyph glyph-name=".notdef" horiz-adv-x="870" 
d="M770 680v-680h-670v680h670zM700 610h-481l481 -481v481zM170 70h477l-477 477v-477z" />
    <glyph glyph-name="A" unicode="A" horiz-adv-x="803" 
d="M796 106v-106h-303v106h100l-46 101h-300l-45 -101h91v-106h-286v106h67l218 468h-100v106h262l265 -574h77zM500 309l-104 228l-103 -228h207z" />
    <glyph glyph-name="Aacute" unicode="&#xc1;" 
d="M445 340l294 -295l-25 -25l-294 295l-295 -295l-25 25l295 295l-295 294l25 25l295 -294l294 294l25 -25z" />
    <glyph glyph-name="Abreve" unicode="&#x102;" 
d="M445 340l294 -295l-25 -25l-294 295l-295 -295l-25 25l295 295l-295 294l25 25l295 -294l294 294l25 -25z" />
    <glyph glyph-name="Acaron" unicode="&#x1cd;" 
d="M445 340l294 -295l-25 -25l-294 295l-295 -295l-25 25l295 295l-295 294l25 25l295 -294l294 294l25 -25z" />
    <glyph glyph-name="Acircumflex" unicode="&#xc2;" 
d="M445 340l294 -295l-25 -25l-294 295l-295 -295l-25 25l295 295l-295 294l25 25l295 -294l294 294l25 -25z" />
    <glyph glyph-name="Adieresis" unicode="&#xc4;" horiz-adv-x="803" 
d="M292 750c-40 0 -73 31 -73 70c0 40 33 71 73 71s73 -31 73 -71c0 -39 -33 -70 -73 -70zM500 750c-40 0 -73 31 -73 70c0 40 33 71 73 71s73 -31 73 -71c0 -39 -33 -70 -73 -70zM796 106v-106h-303v106h100l-46 101h-300l-45 -101h91v-106h-286v106h67l218 468h-100v106
h262l265 -574h77zM500 309l-104 228l-103 -228h207z" />
    <glyph glyph-name="Agrave" unicode="&#xc0;" 
d="M445 340l294 -295l-25 -25l-294 295l-295 -295l-25 25l295 295l-295 294l25 25l295 -294l294 294l25 -25z" />
    <glyph glyph-name="Amacron" unicode="&#x100;" 
d="M445 340l294 -295l-25 -25l-294 295l-295 -295l-25 25l295 295l-295 294l25 25l295 -294l294 294l25 -25z" />
    <glyph glyph-name="Aogonek" unicode="&#x104;" 
d="M445 340l294 -295l-25 -25l-294 295l-295 -295l-25 25l295 295l-295 294l25 25l295 -294l294 294l25 -25z" />
    <glyph glyph-name="Aring" unicode="&#xc5;" 
d="M445 340l294 -295l-25 -25l-294 295l-295 -295l-25 25l295 295l-295 294l25 25l295 -294l294 294l25 -25z" />
    <glyph glyph-name="Atilde" unicode="&#xc3;" 
d="M445 340l294 -295l-25 -25l-294 295l-295 -295l-25 25l295 295l-295 294l25 25l295 -294l294 294l25 -25z" />
    <glyph glyph-name="AE" unicode="&#xc6;" horiz-adv-x="1095" 
d="M1051 680v-228h-108v117h-266v-178h230v-111h-230v-169h266v117h108v-228h-579v106h85v110h-241l-75 -110h103v-106h-337v106h89l331 468h-87v106h711zM557 318v250l-171 -250h171z" />
    <glyph glyph-name="B" unicode="B" horiz-adv-x="712" 
d="M542 352c91 -18 132 -87 132 -164c0 -114 -94 -188 -245 -188h-382v106h86v468h-86v106h369c144 0 227 -69 227 -174c0 -73 -39 -133 -101 -154zM253 574v-181h155c84 0 122 37 122 94c0 55 -38 87 -122 87h-155zM253 106h173c89 0 130 42 130 95c0 55 -41 84 -119 84
h-184v-179z" />
    <glyph glyph-name="C" unicode="C" horiz-adv-x="802" 
d="M625 264h124c-31 -168 -169 -278 -338 -278c-196 0 -364 149 -364 354s165 354 356 354c94 0 174 -29 229 -84v70h112v-264h-112c-26 103 -116 163 -222 163c-133 0 -237 -98 -237 -239s105 -239 238 -239c105 0 189 60 214 163z" />
    <glyph glyph-name="Cacute" unicode="&#x106;" 
d="M445 340l294 -295l-25 -25l-294 295l-295 -295l-25 25l295 295l-295 294l25 25l295 -294l294 294l25 -25z" />
    <glyph glyph-name="Ccaron" unicode="&#x10c;" 
d="M445 340l294 -295l-25 -25l-294 295l-295 -295l-25 25l295 295l-295 294l25 25l295 -294l294 294l25 -25z" />
    <glyph glyph-name="Ccedilla" unicode="&#xc7;" 
d="M445 340l294 -295l-25 -25l-294 295l-295 -295l-25 25l295 295l-295 294l25 25l295 -294l294 294l25 -25z" />
    <glyph glyph-name="Cdotaccent" unicode="&#x10a;" 
d="M445 340l294 -295l-25 -25l-294 295l-295 -295l-25 25l295 295l-295 294l25 25l295 -294l294 294l25 -25z" />
    <glyph glyph-name="D" unicode="D" horiz-adv-x="797" 
d="M47 680h341c208 0 362 -143 362 -337c0 -197 -154 -343 -362 -343h-341v106h86v468h-86v106zM253 111h135c135 0 240 101 240 232c0 128 -105 226 -240 226h-135v-458z" />
    <glyph glyph-name="Eth" unicode="&#xd0;" 
d="M445 340l294 -295l-25 -25l-294 295l-295 -295l-25 25l295 295l-295 294l25 25l295 -294l294 294l25 -25z" />
    <glyph glyph-name="Dcaron" unicode="&#x10e;" 
d="M445 340l294 -295l-25 -25l-294 295l-295 -295l-25 25l295 295l-295 294l25 25l295 -294l294 294l25 -25z" />
    <glyph glyph-name="Dcroat" unicode="&#x110;" 
d="M445 340l294 -295l-25 -25l-294 295l-295 -295l-25 25l295 295l-295 294l25 25l295 -294l294 294l25 -25z" />
    <glyph glyph-name="E" unicode="E" horiz-adv-x="670" 
d="M626 680v-228h-108v117h-265v-178h229v-111h-229v-169h265v117h108v-228h-579v106h86v468h-86v106h579z" />
    <glyph glyph-name="Eacute" unicode="&#xc9;" 
d="M445 340l294 -295l-25 -25l-294 295l-295 -295l-25 25l295 295l-295 294l25 25l295 -294l294 294l25 -25z" />
    <glyph glyph-name="Ecaron" unicode="&#x11a;" 
d="M445 340l294 -295l-25 -25l-294 295l-295 -295l-25 25l295 295l-295 294l25 25l295 -294l294 294l25 -25z" />
    <glyph glyph-name="Ecircumflex" unicode="&#xca;" 
d="M445 340l294 -295l-25 -25l-294 295l-295 -295l-25 25l295 295l-295 294l25 25l295 -294l294 294l25 -25z" />
    <glyph glyph-name="Edieresis" unicode="&#xcb;" 
d="M445 340l294 -295l-25 -25l-294 295l-295 -295l-25 25l295 295l-295 294l25 25l295 -294l294 294l25 -25z" />
    <glyph glyph-name="Edotaccent" unicode="&#x116;" 
d="M445 340l294 -295l-25 -25l-294 295l-295 -295l-25 25l295 295l-295 294l25 25l295 -294l294 294l25 -25z" />
    <glyph glyph-name="Egrave" unicode="&#xc8;" 
d="M445 340l294 -295l-25 -25l-294 295l-295 -295l-25 25l295 295l-295 294l25 25l295 -294l294 294l25 -25z" />
    <glyph glyph-name="Emacron" unicode="&#x112;" 
d="M445 340l294 -295l-25 -25l-294 295l-295 -295l-25 25l295 295l-295 294l25 25l295 -294l294 294l25 -25z" />
    <glyph glyph-name="Eogonek" unicode="&#x118;" 
d="M445 340l294 -295l-25 -25l-294 295l-295 -295l-25 25l295 295l-295 294l25 25l295 -294l294 294l25 -25z" />
    <glyph glyph-name="F" unicode="F" horiz-adv-x="666" 
d="M627 680v-228h-108v117h-266v-196h254v-111h-254v-156h111v-106h-317v106h86v468h-86v106h580z" />
    <glyph glyph-name="G" unicode="G" horiz-adv-x="817" 
d="M750 373v-373h-94l-5 103c-56 -72 -141 -117 -251 -117c-204 0 -353 158 -353 354c0 205 166 354 358 354c97 0 176 -31 229 -88v74h112v-255h-113c-26 94 -115 154 -221 154c-134 0 -239 -98 -239 -239c0 -132 97 -238 233 -238c111 0 195 70 223 168h-228v103h349z" />
    <glyph glyph-name="Gbreve" unicode="&#x11e;" 
d="M445 340l294 -295l-25 -25l-294 295l-295 -295l-25 25l295 295l-295 294l25 25l295 -294l294 294l25 -25z" />
    <glyph glyph-name="Gcommaaccent" unicode="&#x122;" 
d="M445 340l294 -295l-25 -25l-294 295l-295 -295l-25 25l295 295l-295 294l25 25l295 -294l294 294l25 -25z" />
    <glyph glyph-name="Gdotaccent" unicode="&#x120;" 
d="M445 340l294 -295l-25 -25l-294 295l-295 -295l-25 25l295 295l-295 294l25 25l295 -294l294 294l25 -25z" />
    <glyph glyph-name="H" unicode="H" horiz-adv-x="844" 
d="M711 574v-468h85v-106h-291v106h86v173h-338v-173h85v-106h-291v106h86v468h-86v106h291v-106h-85v-187h338v187h-86v106h291v-106h-85z" />
    <glyph glyph-name="Hbar" unicode="&#x126;" 
d="M445 340l294 -295l-25 -25l-294 295l-295 -295l-25 25l295 295l-295 294l25 25l295 -294l294 294l25 -25z" />
    <glyph glyph-name="I" unicode="I" horiz-adv-x="385" 
d="M253 574v-468h85v-106h-291v106h86v468h-86v106h291v-106h-85z" />
    <glyph glyph-name="IJ" unicode="&#x132;" horiz-adv-x="1024" 
d="M338 680v-106h-85v-468h85v-106h-291v106h86v468h-86v106h291zM1017 574h-86v-319c0 -162 -107 -270 -275 -270c-162 0 -265 109 -265 272h121c0 -97 57 -160 152 -160c90 0 145 63 145 158v319h-230v106h438v-106z" />
    <glyph glyph-name="Iacute" unicode="&#xcd;" 
d="M445 340l294 -295l-25 -25l-294 295l-295 -295l-25 25l295 295l-295 294l25 25l295 -294l294 294l25 -25z" />
    <glyph glyph-name="Icircumflex" unicode="&#xce;" 
d="M445 340l294 -295l-25 -25l-294 295l-295 -295l-25 25l295 295l-295 294l25 25l295 -294l294 294l25 -25z" />
    <glyph glyph-name="Idieresis" unicode="&#xcf;" 
d="M445 340l294 -295l-25 -25l-294 295l-295 -295l-25 25l295 295l-295 294l25 25l295 -294l294 294l25 -25z" />
    <glyph glyph-name="Idotaccent" unicode="&#x130;" 
d="M445 340l294 -295l-25 -25l-294 295l-295 -295l-25 25l295 295l-295 294l25 25l295 -294l294 294l25 -25z" />
    <glyph glyph-name="Igrave" unicode="&#xcc;" 
d="M445 340l294 -295l-25 -25l-294 295l-295 -295l-25 25l295 295l-295 294l25 25l295 -294l294 294l25 -25z" />
    <glyph glyph-name="Imacron" unicode="&#x12a;" 
d="M445 340l294 -295l-25 -25l-294 295l-295 -295l-25 25l295 295l-295 294l25 25l295 -294l294 294l25 -25z" />
    <glyph glyph-name="Iogonek" unicode="&#x12e;" 
d="M445 340l294 -295l-25 -25l-294 295l-295 -295l-25 25l295 295l-295 294l25 25l295 -294l294 294l25 -25z" />
    <glyph glyph-name="J" unicode="J" horiz-adv-x="666" 
d="M659 574h-86v-319c0 -162 -107 -270 -275 -270c-162 0 -265 109 -265 272h121c0 -97 57 -160 152 -160c90 0 145 63 145 158v319h-230v106h438v-106z" />
    <glyph glyph-name="K" unicode="K" horiz-adv-x="845" 
d="M821 106v-106h-351v106h75l-154 202l-136 -125v-77h87v-106h-295v106h88v468h-88v106h295v-106h-87v-244l281 244h-87v106h337v-106h-104l-204 -187l215 -281h128z" />
    <glyph glyph-name="Kcommaaccent" unicode="&#x136;" 
d="M445 340l294 -295l-25 -25l-294 295l-295 -295l-25 25l295 295l-295 294l25 25l295 -294l294 294l25 -25z" />
    <glyph glyph-name="L" unicode="L" horiz-adv-x="658" 
d="M613 228v-228h-566v106h86v468h-86v106h333v-106h-127v-466h244v120h116z" />
    <glyph glyph-name="Lacute" unicode="&#x139;" 
d="M445 340l294 -295l-25 -25l-294 295l-295 -295l-25 25l295 295l-295 294l25 25l295 -294l294 294l25 -25z" />
    <glyph glyph-name="Lcaron" unicode="&#x13d;" 
d="M445 340l294 -295l-25 -25l-294 295l-295 -295l-25 25l295 295l-295 294l25 25l295 -294l294 294l25 -25z" />
    <glyph glyph-name="Lcommaaccent" unicode="&#x13b;" 
d="M445 340l294 -295l-25 -25l-294 295l-295 -295l-25 25l295 295l-295 294l25 25l295 -294l294 294l25 -25z" />
    <glyph glyph-name="Ldot" unicode="&#x13f;" 
d="M445 340l294 -295l-25 -25l-294 295l-295 -295l-25 25l295 295l-295 294l25 25l295 -294l294 294l25 -25z" />
    <glyph glyph-name="Lslash" unicode="&#x141;" 
d="M445 340l294 -295l-25 -25l-294 295l-295 -295l-25 25l295 295l-295 294l25 25l295 -294l294 294l25 -25z" />
    <glyph glyph-name="M" unicode="M" horiz-adv-x="964" 
d="M831 574v-468h86v-106h-292v106h85v308l-191 -305h-73l-194 309l1 -312h86v-106h-292v106h86v468h-84v106h161l272 -421l272 421h163v-106h-86z" />
    <glyph glyph-name="N" unicode="N" horiz-adv-x="845" 
d="M819 574h-85v-574h-94l-387 457v-351h85v-106h-291v106h86v468h-86v106h168l399 -476v370h-86v106h291v-106z" />
    <glyph glyph-name="Nacute" unicode="&#x143;" 
d="M445 340l294 -295l-25 -25l-294 295l-295 -295l-25 25l295 295l-295 294l25 25l295 -294l294 294l25 -25z" />
    <glyph glyph-name="Ncaron" unicode="&#x147;" 
d="M445 340l294 -295l-25 -25l-294 295l-295 -295l-25 25l295 295l-295 294l25 25l295 -294l294 294l25 -25z" />
    <glyph glyph-name="Ncommaaccent" unicode="&#x145;" 
d="M445 340l294 -295l-25 -25l-294 295l-295 -295l-25 25l295 295l-295 294l25 25l295 -294l294 294l25 -25z" />
    <glyph glyph-name="Ntilde" unicode="&#xd1;" 
d="M445 340l294 -295l-25 -25l-294 295l-295 -295l-25 25l295 295l-295 294l25 25l295 -294l294 294l25 -25z" />
    <glyph glyph-name="Eng" unicode="&#x14a;" 
d="M445 340l294 -295l-25 -25l-294 295l-295 -295l-25 25l295 295l-295 294l25 25l295 -294l294 294l25 -25z" />
    <glyph glyph-name="O" unicode="O" horiz-adv-x="802" 
d="M401 694c196 0 354 -158 354 -354s-158 -354 -354 -354s-354 158 -354 354s158 354 354 354zM402 98c132 0 232 109 232 242s-100 242 -232 242c-133 0 -233 -109 -233 -242s100 -242 233 -242z" />
    <glyph glyph-name="Oacute" unicode="&#xd3;" 
d="M445 340l294 -295l-25 -25l-294 295l-295 -295l-25 25l295 295l-295 294l25 25l295 -294l294 294l25 -25z" />
    <glyph glyph-name="Ocircumflex" unicode="&#xd4;" 
d="M445 340l294 -295l-25 -25l-294 295l-295 -295l-25 25l295 295l-295 294l25 25l295 -294l294 294l25 -25z" />
    <glyph glyph-name="Odieresis" unicode="&#xd6;" horiz-adv-x="802" 
d="M297 891c40 0 73 -31 73 -71c0 -39 -33 -70 -73 -70s-73 31 -73 70c0 40 33 71 73 71zM505 891c40 0 73 -31 73 -71c0 -39 -33 -70 -73 -70s-73 31 -73 70c0 40 33 71 73 71zM401 694c196 0 354 -158 354 -354s-158 -354 -354 -354s-354 158 -354 354s158 354 354 354z
M402 98c132 0 232 109 232 242s-100 242 -232 242c-133 0 -233 -109 -233 -242s100 -242 233 -242z" />
    <glyph glyph-name="Ograve" unicode="&#xd2;" 
d="M445 340l294 -295l-25 -25l-294 295l-295 -295l-25 25l295 295l-295 294l25 25l295 -294l294 294l25 -25z" />
    <glyph glyph-name="Ohungarumlaut" unicode="&#x150;" 
d="M445 340l294 -295l-25 -25l-294 295l-295 -295l-25 25l295 295l-295 294l25 25l295 -294l294 294l25 -25z" />
    <glyph glyph-name="Omacron" unicode="&#x14c;" 
d="M445 340l294 -295l-25 -25l-294 295l-295 -295l-25 25l295 295l-295 294l25 25l295 -294l294 294l25 -25z" />
    <glyph glyph-name="Oslash" unicode="&#xd8;" horiz-adv-x="802" 
d="M716 635l-50 -60c55 -62 89 -145 89 -235c0 -196 -158 -354 -354 -354c-68 0 -132 19 -186 52l-50 -60l-72 60l50 59c-60 64 -96 149 -96 243c0 196 158 354 354 354c72 0 139 -21 195 -58l49 59zM169 340c0 -57 19 -110 50 -152l303 360c-35 22 -76 34 -120 34
c-133 0 -233 -109 -233 -242zM402 98c132 0 232 109 232 242c0 54 -16 104 -44 144l-300 -357c33 -19 71 -29 112 -29z" />
    <glyph glyph-name="Otilde" unicode="&#xd5;" 
d="M445 340l294 -295l-25 -25l-294 295l-295 -295l-25 25l295 295l-295 294l25 25l295 -294l294 294l25 -25z" />
    <glyph glyph-name="OE" unicode="&#x152;" horiz-adv-x="1045" 
d="M1001 680v-228h-108v117h-266v-178h230v-111h-230v-169h266v117h108v-228h-573c-223 0 -381 144 -381 340s158 340 381 340h573zM507 112v456h-79c-160 0 -260 -95 -260 -228s100 -228 260 -228h79z" />
    <glyph glyph-name="P" unicode="P" horiz-adv-x="680" 
d="M47 680h341c162 0 269 -94 269 -235c0 -148 -114 -246 -286 -246h-118v-93h106v-106h-312v106h86v468h-86v106zM253 309h131c93 0 155 54 155 136c0 74 -62 124 -155 124h-131v-260z" />
    <glyph glyph-name="Thorn" unicode="&#xde;" horiz-adv-x="680" 
d="M253 582h135c162 0 269 -93 269 -234c0 -149 -114 -247 -286 -247h-118v-101h-206v106h86v468h-86v106h206v-98zM253 211h131c92 0 154 55 154 137c0 74 -62 123 -154 123h-131v-260z" />
    <glyph glyph-name="Q" unicode="Q" horiz-adv-x="802" 
d="M401 694c196 0 354 -158 354 -354s-158 -354 -354 -354s-354 158 -354 354s158 354 354 354zM402 98c132 0 232 109 232 242s-100 242 -232 242c-133 0 -233 -109 -233 -242s100 -242 233 -242zM746 -95l-15 -114c-110 18 -219 43 -327 78l11 87z" />
    <glyph glyph-name="R" unicode="R" horiz-adv-x="756" 
d="M746 106v-106h-256v101l-107 131h-130v-126h90v-106h-296v106h86v468h-86v106h354c155 0 257 -91 257 -228c0 -97 -54 -169 -144 -202l119 -144h113zM253 335h148c83 0 139 45 139 117c0 71 -56 117 -139 117h-148v-234z" />
    <glyph glyph-name="Racute" unicode="&#x154;" 
d="M445 340l294 -295l-25 -25l-294 295l-295 -295l-25 25l295 295l-295 294l25 25l295 -294l294 294l25 -25z" />
    <glyph glyph-name="Rcaron" unicode="&#x158;" 
d="M445 340l294 -295l-25 -25l-294 295l-295 -295l-25 25l295 295l-295 294l25 25l295 -294l294 294l25 -25z" />
    <glyph glyph-name="Rcommaaccent" unicode="&#x156;" 
d="M445 340l294 -295l-25 -25l-294 295l-295 -295l-25 25l295 295l-295 294l25 25l295 -294l294 294l25 -25z" />
    <glyph glyph-name="S" unicode="S" horiz-adv-x="680" 
d="M318 402l105 -17c134 -22 212 -84 212 -197c0 -125 -94 -202 -249 -202c-102 0 -172 33 -218 85v-71h-112v222h112c57 -80 105 -126 216 -126c76 0 127 34 127 86c0 39 -25 79 -107 92l-131 22c-136 21 -201 91 -201 194c0 124 95 205 250 205c85 0 154 -24 200 -74v59
h103v-201h-110c-33 60 -85 112 -187 112c-84 0 -130 -36 -130 -95c0 -55 41 -81 120 -94z" />
    <glyph glyph-name="Sacute" unicode="&#x15a;" 
d="M445 340l294 -295l-25 -25l-294 295l-295 -295l-25 25l295 295l-295 294l25 25l295 -294l294 294l25 -25z" />
    <glyph glyph-name="Scaron" unicode="&#x160;" 
d="M445 340l294 -295l-25 -25l-294 295l-295 -295l-25 25l295 295l-295 294l25 25l295 -294l294 294l25 -25z" />
    <glyph glyph-name="Scedilla" unicode="&#x15e;" 
d="M445 340l294 -295l-25 -25l-294 295l-295 -295l-25 25l295 295l-295 294l25 25l295 -294l294 294l25 -25z" />
    <glyph glyph-name="Scommaaccent" unicode="&#x218;" 
d="M445 340l294 -295l-25 -25l-294 295l-295 -295l-25 25l295 295l-295 294l25 25l295 -294l294 294l25 -25z" />
    <glyph glyph-name="T" unicode="T" horiz-adv-x="696" 
d="M663 680v-228h-108v117h-147v-463h114v-106h-348v106h114v463h-147v-117h-108v228h630z" />
    <glyph glyph-name="Tcaron" unicode="&#x164;" 
d="M445 340l294 -295l-25 -25l-294 295l-295 -295l-25 25l295 295l-295 294l25 25l295 -294l294 294l25 -25z" />
    <glyph glyph-name="Tcedilla" unicode="&#x162;" 
d="M445 340l294 -295l-25 -25l-294 295l-295 -295l-25 25l295 295l-295 294l25 25l295 -294l294 294l25 -25z" />
    <glyph glyph-name="uni021A" unicode="&#x21a;" 
d="M445 340l294 -295l-25 -25l-294 295l-295 -295l-25 25l295 295l-295 294l25 25l295 -294l294 294l25 -25z" />
    <glyph glyph-name="Tbar" unicode="&#x166;" 
d="M445 340l294 -295l-25 -25l-294 295l-295 -295l-25 25l295 295l-295 294l25 25l295 -294l294 294l25 -25z" />
    <glyph glyph-name="U" unicode="U" horiz-adv-x="803" 
d="M788 574h-86v-272c0 -195 -120 -317 -301 -317c-180 0 -300 122 -300 317v272h-86v106h291v-106h-85v-272c0 -121 72 -205 180 -205c109 0 182 84 182 205v272h-86v106h291v-106z" />
    <glyph glyph-name="Uacute" unicode="&#xda;" 
d="M445 340l294 -295l-25 -25l-294 295l-295 -295l-25 25l295 295l-295 294l25 25l295 -294l294 294l25 -25z" />
    <glyph glyph-name="Ucircumflex" unicode="&#xdb;" 
d="M445 340l294 -295l-25 -25l-294 295l-295 -295l-25 25l295 295l-295 294l25 25l295 -294l294 294l25 -25z" />
    <glyph glyph-name="Udieresis" unicode="&#xdc;" horiz-adv-x="803" 
d="M297 750c-40 0 -73 31 -73 70c0 40 33 71 73 71s73 -31 73 -71c0 -39 -33 -70 -73 -70zM505 750c-40 0 -73 31 -73 70c0 40 33 71 73 71s73 -31 73 -71c0 -39 -33 -70 -73 -70zM788 574h-86v-272c0 -195 -120 -317 -301 -317c-180 0 -300 122 -300 317v272h-86v106h291
v-106h-85v-272c0 -121 72 -205 180 -205c109 0 182 84 182 205v272h-86v106h291v-106z" />
    <glyph glyph-name="Ugrave" unicode="&#xd9;" 
d="M445 340l294 -295l-25 -25l-294 295l-295 -295l-25 25l295 295l-295 294l25 25l295 -294l294 294l25 -25z" />
    <glyph glyph-name="Uhungarumlaut" unicode="&#x170;" 
d="M445 340l294 -295l-25 -25l-294 295l-295 -295l-25 25l295 295l-295 294l25 25l295 -294l294 294l25 -25z" />
    <glyph glyph-name="Umacron" unicode="&#x16a;" 
d="M445 340l294 -295l-25 -25l-294 295l-295 -295l-25 25l295 295l-295 294l25 25l295 -294l294 294l25 -25z" />
    <glyph glyph-name="Uogonek" unicode="&#x172;" 
d="M445 340l294 -295l-25 -25l-294 295l-295 -295l-25 25l295 295l-295 294l25 25l295 -294l294 294l25 -25z" />
    <glyph glyph-name="Uring" unicode="&#x16e;" 
d="M445 340l294 -295l-25 -25l-294 295l-295 -295l-25 25l295 295l-295 294l25 25l295 -294l294 294l25 -25z" />
    <glyph glyph-name="V" unicode="V" horiz-adv-x="850" 
d="M835 574h-80l-273 -578h-114l-273 578h-80v106h334v-106h-117l193 -418l193 418h-117v106h334v-106z" />
    <glyph glyph-name="W" unicode="W" horiz-adv-x="1121" 
d="M1031 574l-190 -576v-2h-119v1l-161 467l-162 -468h-118l-191 578h-75v106h317v-106h-116l125 -398l171 504h97l171 -502l126 396h-116v106h317v-106h-76z" />
    <glyph glyph-name="Wacute" unicode="&#x1e82;" 
d="M445 340l294 -295l-25 -25l-294 295l-295 -295l-25 25l295 295l-295 294l25 25l295 -294l294 294l25 -25z" />
    <glyph glyph-name="Wcircumflex" unicode="&#x174;" 
d="M445 340l294 -295l-25 -25l-294 295l-295 -295l-25 25l295 295l-295 294l25 25l295 -294l294 294l25 -25z" />
    <glyph glyph-name="Wdieresis" unicode="&#x1e84;" 
d="M445 340l294 -295l-25 -25l-294 295l-295 -295l-25 25l295 295l-295 294l25 25l295 -294l294 294l25 -25z" />
    <glyph glyph-name="Wgrave" unicode="&#x1e80;" 
d="M445 340l294 -295l-25 -25l-294 295l-295 -295l-25 25l295 295l-295 294l25 25l295 -294l294 294l25 -25z" />
    <glyph glyph-name="X" unicode="X" horiz-adv-x="823" 
d="M794 106v-106h-320v106h59l-122 147l-121 -147h59v-106h-320v106h116l190 230l-187 238h-116v106h320v-106h-55l114 -148l113 148h-54v106h320v-106h-117l-187 -237l191 -231h117z" />
    <glyph glyph-name="Y" unicode="Y" horiz-adv-x="801" 
d="M464 229v-123h90v-106h-307v106h90v123l-219 345h-103v106h330v-106h-90l145 -230l144 230h-88v106h330v-106h-104z" />
    <glyph glyph-name="Yacute" unicode="&#xdd;" 
d="M445 340l294 -295l-25 -25l-294 295l-295 -295l-25 25l295 295l-295 294l25 25l295 -294l294 294l25 -25z" />
    <glyph glyph-name="Ycircumflex" unicode="&#x176;" 
d="M445 340l294 -295l-25 -25l-294 295l-295 -295l-25 25l295 295l-295 294l25 25l295 -294l294 294l25 -25z" />
    <glyph glyph-name="Ydieresis" unicode="&#x178;" 
d="M445 340l294 -295l-25 -25l-294 295l-295 -295l-25 25l295 295l-295 294l25 25l295 -294l294 294l25 -25z" />
    <glyph glyph-name="Ygrave" unicode="&#x1ef2;" 
d="M445 340l294 -295l-25 -25l-294 295l-295 -295l-25 25l295 295l-295 294l25 25l295 -294l294 294l25 -25z" />
    <glyph glyph-name="Z" unicode="Z" horiz-adv-x="647" 
d="M613 228v-228h-579v57l395 514h-269v-119h-112v228h561v-57l-398 -514h290v119h112z" />
    <glyph glyph-name="Zacute" unicode="&#x179;" 
d="M445 340l294 -295l-25 -25l-294 295l-295 -295l-25 25l295 295l-295 294l25 25l295 -294l294 294l25 -25z" />
    <glyph glyph-name="Zcaron" unicode="&#x17d;" 
d="M445 340l294 -295l-25 -25l-294 295l-295 -295l-25 25l295 295l-295 294l25 25l295 -294l294 294l25 -25z" />
    <glyph glyph-name="Zdotaccent" unicode="&#x17b;" 
d="M445 340l294 -295l-25 -25l-294 295l-295 -295l-25 25l295 295l-295 294l25 25l295 -294l294 294l25 -25z" />
    <glyph glyph-name="P.ss13" horiz-adv-x="680" 
d="M47 680h341c162 0 269 -94 269 -235c0 -148 -114 -246 -286 -246h-28v110h41c92 0 154 54 154 136c0 74 -62 124 -154 124h-131v-463h106v-106h-312v106h86v468h-86v106z" />
    <glyph glyph-name="R.ss02" horiz-adv-x="756" 
d="M746 106v-106h-256v89l-133 143h1v103h44c83 0 139 45 139 117c0 71 -56 117 -139 117h-149v-463h90v-106h-296v106h86v468h-86v106h355c154 0 257 -91 257 -228c0 -104 -63 -180 -163 -208l129 -138h121z" />
    <glyph glyph-name="Racute.ss02" 
d="M445 340l294 -295l-25 -25l-294 295l-295 -295l-25 25l295 295l-295 294l25 25l295 -294l294 294l25 -25z" />
    <glyph glyph-name="Rcaron.ss02" 
d="M445 340l294 -295l-25 -25l-294 295l-295 -295l-25 25l295 295l-295 294l25 25l295 -294l294 294l25 -25z" />
    <glyph glyph-name="Rcommaaccent.ss02" 
d="M445 340l294 -295l-25 -25l-294 295l-295 -295l-25 25l295 295l-295 294l25 25l295 -294l294 294l25 -25z" />
    <glyph glyph-name="Q.ss03" horiz-adv-x="833" 
d="M705 -125l-148 147c-47 -23 -100 -36 -156 -36c-196 0 -354 158 -354 354s158 354 354 354s354 -158 354 -354c0 -96 -38 -183 -99 -246l129 -131zM169 340c0 -133 100 -242 233 -242c132 0 232 109 232 242s-100 242 -232 242c-133 0 -233 -109 -233 -242z" />
    <glyph glyph-name="K.ss08" horiz-adv-x="845" 
d="M821 106v-106h-351v106h72l-140 172h-147v-172h87v-106h-295v106h88v468h-88v106h295v-106h-87v-188h146l137 188h-89v106h337v-106h-115l-169 -234l187 -234h132z" />
    <glyph glyph-name="Kcommaaccent.ss08" 
d="M445 340l294 -295l-25 -25l-294 295l-295 -295l-25 25l295 295l-295 294l25 25l295 -294l294 294l25 -25z" />
    <glyph glyph-name="Z.ss12" horiz-adv-x="678" 
d="M628 228v-228h-579v57l179 233h-116v97h191l141 184h-268v-119h-112v228h561v-57l-2 -2l-182 -234h127v-97h-202l-140 -181h290v119h112z" />
    <glyph glyph-name="Zacute.ss12" 
d="M445 340l294 -295l-25 -25l-294 295l-295 -295l-25 25l295 295l-295 294l25 25l295 -294l294 294l25 -25z" />
    <glyph glyph-name="Zcaron.ss12" 
d="M445 340l294 -295l-25 -25l-294 295l-295 -295l-25 25l295 295l-295 294l25 25l295 -294l294 294l25 -25z" />
    <glyph glyph-name="Zdotaccent.ss12" 
d="M445 340l294 -295l-25 -25l-294 295l-295 -295l-25 25l295 295l-295 294l25 25l295 -294l294 294l25 -25z" />
    <glyph glyph-name="a" unicode="a" horiz-adv-x="647" 
d="M532 367v-261h76v-106h-191v33c-39 -28 -88 -44 -145 -44c-132 0 -238 110 -238 247c0 138 106 248 238 248c57 0 106 -16 145 -44v33h191v-106h-76zM289 89c45 0 87 15 128 55v185c-41 40 -83 55 -128 55c-81 0 -140 -69 -140 -148c0 -78 59 -147 140 -147z" />
    <glyph glyph-name="aacute" unicode="&#xe1;" 
d="M445 340l294 -295l-25 -25l-294 295l-295 -295l-25 25l295 295l-295 294l25 25l295 -294l294 294l25 -25z" />
    <glyph glyph-name="abreve" unicode="&#x103;" 
d="M445 340l294 -295l-25 -25l-294 295l-295 -295l-25 25l295 295l-295 294l25 25l295 -294l294 294l25 -25z" />
    <glyph glyph-name="acaron" unicode="&#x1ce;" 
d="M445 340l294 -295l-25 -25l-294 295l-295 -295l-25 25l295 295l-295 294l25 25l295 -294l294 294l25 -25z" />
    <glyph glyph-name="acircumflex" unicode="&#xe2;" 
d="M445 340l294 -295l-25 -25l-294 295l-295 -295l-25 25l295 295l-295 294l25 25l295 -294l294 294l25 -25z" />
    <glyph glyph-name="adieresis" unicode="&#xe4;" 
d="M445 340l294 -295l-25 -25l-294 295l-295 -295l-25 25l295 295l-295 294l25 25l295 -294l294 294l25 -25z" />
    <glyph glyph-name="agrave" unicode="&#xe0;" 
d="M445 340l294 -295l-25 -25l-294 295l-295 -295l-25 25l295 295l-295 294l25 25l295 -294l294 294l25 -25z" />
    <glyph glyph-name="amacron" unicode="&#x101;" 
d="M445 340l294 -295l-25 -25l-294 295l-295 -295l-25 25l295 295l-295 294l25 25l295 -294l294 294l25 -25z" />
    <glyph glyph-name="aogonek" unicode="&#x105;" 
d="M445 340l294 -295l-25 -25l-294 295l-295 -295l-25 25l295 295l-295 294l25 25l295 -294l294 294l25 -25z" />
    <glyph glyph-name="aring" unicode="&#xe5;" 
d="M445 340l294 -295l-25 -25l-294 295l-295 -295l-25 25l295 295l-295 294l25 25l295 -294l294 294l25 -25z" />
    <glyph glyph-name="atilde" unicode="&#xe3;" 
d="M445 340l294 -295l-25 -25l-294 295l-295 -295l-25 25l295 295l-295 294l25 25l295 -294l294 294l25 -25z" />
    <glyph glyph-name="ae" unicode="&#xe6;" horiz-adv-x="879" 
d="M845 244c0 -17 0 -35 -3 -53h-1h-363c15 -59 59 -104 140 -104c45 0 78 15 96 44h123c-27 -87 -115 -146 -223 -146c-76 0 -140 28 -184 75c-50 -36 -111 -70 -197 -70c-121 0 -199 58 -199 152c0 91 72 135 180 135h151l4 20c-7 51 -38 92 -102 92
c-51 0 -91 -24 -97 -67h-115c7 117 113 166 212 166c73 0 131 -26 167 -73c43 43 104 69 175 69c138 0 236 -98 236 -240zM612 393c-74 0 -119 -50 -134 -111h257c-10 64 -52 111 -123 111zM238 87c43 0 89 11 143 49c-7 18 -12 36 -15 55h-156c-41 0 -66 -18 -66 -46
c0 -31 27 -58 94 -58z" />
    <glyph glyph-name="b" unicode="b" horiz-adv-x="647" 
d="M375 484c132 0 238 -110 238 -247c0 -138 -106 -248 -238 -248c-58 0 -107 17 -146 45v-34h-190v106h75v498h-75v106h190v-271c39 28 88 45 146 45zM357 89c82 0 140 69 140 148c0 78 -58 147 -140 147c-44 0 -87 -15 -128 -56v-183c41 -41 84 -56 128 -56z" />
    <glyph glyph-name="c" unicode="c" horiz-adv-x="563" 
d="M410 177h118c-16 -112 -105 -188 -233 -188c-151 0 -261 105 -261 247s106 246 252 246c53 0 98 -16 132 -44v35h107v-177h-112c-13 50 -59 83 -118 83c-83 0 -146 -63 -146 -143s63 -143 146 -143c58 0 102 33 115 84z" />
    <glyph glyph-name="cacute" unicode="&#x107;" 
d="M445 340l294 -295l-25 -25l-294 295l-295 -295l-25 25l295 295l-295 294l25 25l295 -294l294 294l25 -25z" />
    <glyph glyph-name="ccaron" unicode="&#x10d;" 
d="M445 340l294 -295l-25 -25l-294 295l-295 -295l-25 25l295 295l-295 294l25 25l295 -294l294 294l25 -25z" />
    <glyph glyph-name="ccedilla" unicode="&#xe7;" 
d="M445 340l294 -295l-25 -25l-294 295l-295 -295l-25 25l295 295l-295 294l25 25l295 -294l294 294l25 -25z" />
    <glyph glyph-name="cdotaccent" unicode="&#x10b;" 
d="M445 340l294 -295l-25 -25l-294 295l-295 -295l-25 25l295 295l-295 294l25 25l295 -294l294 294l25 -25z" />
    <glyph glyph-name="d" unicode="d" horiz-adv-x="645" 
d="M608 106v-106h-191v34c-39 -29 -88 -45 -145 -45c-132 0 -238 110 -238 248c0 137 106 247 238 247c57 0 106 -16 145 -44v164h-76v106h191v-604h76zM289 89c45 0 87 15 128 55v181c-41 44 -83 59 -128 59c-81 0 -140 -69 -140 -147c0 -79 59 -148 140 -148z" />
    <glyph glyph-name="eth" unicode="&#xf0;" horiz-adv-x="606" 
d="M468 617l-58 -20c96 -94 153 -220 153 -361c0 -153 -112 -251 -259 -251c-149 0 -261 107 -261 251c0 143 112 248 261 248c39 0 77 -12 110 -31c-27 40 -63 76 -106 108l-160 -57l-29 76l101 36c-33 17 -67 33 -105 49l118 50c37 -16 72 -35 104 -57l102 36zM303 90
c85 0 144 65 144 146c0 80 -59 143 -144 143c-86 0 -145 -63 -145 -143c0 -81 59 -146 145 -146z" />
    <glyph glyph-name="dcaron" unicode="&#x10f;" 
d="M445 340l294 -295l-25 -25l-294 295l-295 -295l-25 25l295 295l-295 294l25 25l295 -294l294 294l25 -25z" />
    <glyph glyph-name="dcroat" unicode="&#x111;" 
d="M445 340l294 -295l-25 -25l-294 295l-295 -295l-25 25l295 295l-295 294l25 25l295 -294l294 294l25 -25z" />
    <glyph glyph-name="e" unicode="e" horiz-adv-x="551" 
d="M517 244c0 -17 0 -35 -3 -53h-1h-363c15 -59 59 -104 140 -104c45 0 78 15 96 44h123c-27 -87 -115 -146 -223 -146c-151 0 -252 111 -252 251c0 141 103 248 247 248c138 0 236 -98 236 -240zM284 393c-74 0 -119 -50 -134 -111h257c-10 64 -52 111 -123 111z" />
    <glyph glyph-name="eacute" unicode="&#xe9;" 
d="M445 340l294 -295l-25 -25l-294 295l-295 -295l-25 25l295 295l-295 294l25 25l295 -294l294 294l25 -25z" />
    <glyph glyph-name="ecaron" unicode="&#x11b;" 
d="M445 340l294 -295l-25 -25l-294 295l-295 -295l-25 25l295 295l-295 294l25 25l295 -294l294 294l25 -25z" />
    <glyph glyph-name="ecircumflex" unicode="&#xea;" 
d="M445 340l294 -295l-25 -25l-294 295l-295 -295l-25 25l295 295l-295 294l25 25l295 -294l294 294l25 -25z" />
    <glyph glyph-name="edieresis" unicode="&#xeb;" 
d="M445 340l294 -295l-25 -25l-294 295l-295 -295l-25 25l295 295l-295 294l25 25l295 -294l294 294l25 -25z" />
    <glyph glyph-name="edotaccent" unicode="&#x117;" 
d="M445 340l294 -295l-25 -25l-294 295l-295 -295l-25 25l295 295l-295 294l25 25l295 -294l294 294l25 -25z" />
    <glyph glyph-name="egrave" unicode="&#xe8;" 
d="M445 340l294 -295l-25 -25l-294 295l-295 -295l-25 25l295 295l-295 294l25 25l295 -294l294 294l25 -25z" />
    <glyph glyph-name="emacron" unicode="&#x113;" 
d="M445 340l294 -295l-25 -25l-294 295l-295 -295l-25 25l295 295l-295 294l25 25l295 -294l294 294l25 -25z" />
    <glyph glyph-name="eogonek" unicode="&#x119;" 
d="M445 340l294 -295l-25 -25l-294 295l-295 -295l-25 25l295 295l-295 294l25 25l295 -294l294 294l25 -25z" />
    <glyph glyph-name="f" unicode="f" horiz-adv-x="442" 
d="M258 473h179v-106h-179v-261h114v-106h-305v106h76v261h-133v106h133v78c0 127 76 208 192 208c32 0 72 -5 109 -15l-16 -95c-24 5 -53 9 -71 9c-60 0 -99 -38 -99 -107v-78z" />
    <glyph glyph-name="g" unicode="g" horiz-adv-x="650" 
d="M536 367v-396h1c0 -138 -106 -226 -248 -226c-135 0 -233 82 -245 197h117c8 -55 56 -92 126 -92c77 0 134 45 134 121v65c-39 -29 -90 -47 -146 -47c-138 0 -241 110 -241 247c0 138 103 248 241 248c56 0 107 -18 146 -47v36h191v-106h-76zM291 89c48 0 97 21 130 73
v149c-33 52 -82 73 -130 73c-86 0 -142 -69 -142 -148c0 -78 56 -147 142 -147z" />
    <glyph glyph-name="gbreve" unicode="&#x11f;" 
d="M445 340l294 -295l-25 -25l-294 295l-295 -295l-25 25l295 295l-295 294l25 25l295 -294l294 294l25 -25z" />
    <glyph glyph-name="gcommaaccent" unicode="&#x123;" 
d="M445 340l294 -295l-25 -25l-294 295l-295 -295l-25 25l295 295l-295 294l25 25l295 -294l294 294l25 -25z" />
    <glyph glyph-name="gdotaccent" unicode="&#x121;" 
d="M445 340l294 -295l-25 -25l-294 295l-295 -295l-25 25l295 295l-295 294l25 25l295 -294l294 294l25 -25z" />
    <glyph glyph-name="h" unicode="h" horiz-adv-x="683" 
d="M659 106v-106h-267v106h75v148c0 83 -43 129 -116 129c-41 0 -86 -24 -122 -69v-208h77v-106h-267v106h75v498h-75v106h190v-276c40 34 89 54 146 54c125 0 208 -90 208 -227v-155h76z" />
    <glyph glyph-name="hbar" unicode="&#x127;" 
d="M445 340l294 -295l-25 -25l-294 295l-295 -295l-25 25l295 295l-295 294l25 25l295 -294l294 294l25 -25z" />
    <glyph glyph-name="i" unicode="i" horiz-adv-x="342" 
d="M172 553c-44 0 -79 33 -79 76c0 44 35 77 79 77c43 0 78 -33 78 -77c0 -43 -35 -76 -78 -76zM306 106v-106h-267v106h75v261h-75v106h190v-367h77z" />
    <glyph glyph-name="dotlessi" unicode="&#x131;" horiz-adv-x="342" 
d="M306 106v-106h-267v106h75v261h-75v106h190v-367h77z" />
    <glyph glyph-name="iacute" unicode="&#xed;" 
d="M445 340l294 -295l-25 -25l-294 295l-295 -295l-25 25l295 295l-295 294l25 25l295 -294l294 294l25 -25z" />
    <glyph glyph-name="icircumflex" unicode="&#xee;" 
d="M445 340l294 -295l-25 -25l-294 295l-295 -295l-25 25l295 295l-295 294l25 25l295 -294l294 294l25 -25z" />
    <glyph glyph-name="idieresis" unicode="&#xef;" 
d="M445 340l294 -295l-25 -25l-294 295l-295 -295l-25 25l295 295l-295 294l25 25l295 -294l294 294l25 -25z" />
    <glyph glyph-name="i.loclTRK" 
d="M445 340l294 -295l-25 -25l-294 295l-295 -295l-25 25l295 295l-295 294l25 25l295 -294l294 294l25 -25z" />
    <glyph glyph-name="igrave" unicode="&#xec;" 
d="M445 340l294 -295l-25 -25l-294 295l-295 -295l-25 25l295 295l-295 294l25 25l295 -294l294 294l25 -25z" />
    <glyph glyph-name="ij" unicode="&#x133;" horiz-adv-x="605" 
d="M172 553c-44 0 -79 33 -79 76c0 44 35 77 79 77c43 0 78 -33 78 -77c0 -43 -35 -76 -78 -76zM482 553c-43 0 -79 33 -79 76c0 44 36 77 79 77c44 0 78 -33 78 -77c0 -43 -34 -76 -78 -76zM229 106h77v-106h-267v106h75v261h-75v106h190v-367zM540 473v-508
c0 -126 -35 -180 -164 -223l-44 94c71 32 93 54 93 119v412h-104v106h219z" />
    <glyph glyph-name="imacron" unicode="&#x12b;" 
d="M445 340l294 -295l-25 -25l-294 295l-295 -295l-25 25l295 295l-295 294l25 25l295 -294l294 294l25 -25z" />
    <glyph glyph-name="iogonek" unicode="&#x12f;" 
d="M445 340l294 -295l-25 -25l-294 295l-295 -295l-25 25l295 295l-295 294l25 25l295 -294l294 294l25 -25z" />
    <glyph glyph-name="j" unicode="j" horiz-adv-x="301" 
d="M178 553c-43 0 -79 33 -79 76c0 44 36 77 79 77c44 0 78 -33 78 -77c0 -43 -34 -76 -78 -76zM236 473v-508c0 -126 -35 -180 -164 -223l-44 94c71 32 93 54 93 119v412h-104v106h219z" />
    <glyph glyph-name="k" unicode="k" horiz-adv-x="691" 
d="M673 106v-106h-220v75l-116 144l-108 -87v-26h85v-106h-275v106h75v498h-75v106h190v-456l156 124v95h242v-106h-106l-97 -78l147 -183h102z" />
    <glyph glyph-name="kcommaaccent" unicode="&#x137;" 
d="M445 340l294 -295l-25 -25l-294 295l-295 -295l-25 25l295 295l-295 294l25 25l295 -294l294 294l25 -25z" />
    <glyph glyph-name="l" unicode="l" horiz-adv-x="342" 
d="M306 106v-106h-267v106h75v498h-75v106h190v-604h77z" />
    <glyph glyph-name="lacute" unicode="&#x13a;" 
d="M445 340l294 -295l-25 -25l-294 295l-295 -295l-25 25l295 295l-295 294l25 25l295 -294l294 294l25 -25z" />
    <glyph glyph-name="lcaron" unicode="&#x13e;" 
d="M445 340l294 -295l-25 -25l-294 295l-295 -295l-25 25l295 295l-295 294l25 25l295 -294l294 294l25 -25z" />
    <glyph glyph-name="lcommaaccent" unicode="&#x13c;" 
d="M445 340l294 -295l-25 -25l-294 295l-295 -295l-25 25l295 295l-295 294l25 25l295 -294l294 294l25 -25z" />
    <glyph glyph-name="ldot" unicode="&#x140;" 
d="M445 340l294 -295l-25 -25l-294 295l-295 -295l-25 25l295 295l-295 294l25 25l295 -294l294 294l25 -25z" />
    <glyph glyph-name="lslash" unicode="&#x142;" 
d="M445 340l294 -295l-25 -25l-294 295l-295 -295l-25 25l295 295l-295 294l25 25l295 -294l294 294l25 -25z" />
    <glyph glyph-name="m" unicode="m" horiz-adv-x="995" 
d="M971 106v-106h-267v106h75v148c0 83 -42 129 -114 129c-36 0 -76 -17 -109 -65c4 -18 6 -37 6 -57v-155h76v-106h-267v106h75v148c0 83 -41 129 -114 129c-34 0 -71 -19 -103 -64v-213h77v-106h-267v106h75v261h-75v106h190v-34c32 31 67 49 127 49c63 0 118 -26 155 -72
c50 48 100 72 178 72c115 0 205 -90 205 -227v-155h77z" />
    <glyph glyph-name="n" unicode="n" horiz-adv-x="683" 
d="M659 106v-106h-267v106h75v148c0 83 -43 129 -116 129c-41 0 -86 -24 -122 -69v-208h77v-106h-267v106h75v261h-75v106h190v-39c40 34 89 54 146 54c125 0 208 -90 208 -227v-155h76z" />
    <glyph glyph-name="nacute" unicode="&#x144;" 
d="M445 340l294 -295l-25 -25l-294 295l-295 -295l-25 25l295 295l-295 294l25 25l295 -294l294 294l25 -25z" />
    <glyph glyph-name="ncaron" unicode="&#x148;" 
d="M445 340l294 -295l-25 -25l-294 295l-295 -295l-25 25l295 295l-295 294l25 25l295 -294l294 294l25 -25z" />
    <glyph glyph-name="ncommaaccent" unicode="&#x146;" 
d="M445 340l294 -295l-25 -25l-294 295l-295 -295l-25 25l295 295l-295 294l25 25l295 -294l294 294l25 -25z" />
    <glyph glyph-name="ntilde" unicode="&#xf1;" 
d="M445 340l294 -295l-25 -25l-294 295l-295 -295l-25 25l295 295l-295 294l25 25l295 -294l294 294l25 -25z" />
    <glyph glyph-name="eng" unicode="&#x14b;" 
d="M445 340l294 -295l-25 -25l-294 295l-295 -295l-25 25l295 295l-295 294l25 25l295 -294l294 294l25 -25z" />
    <glyph glyph-name="o" unicode="o" horiz-adv-x="580" 
d="M290 484c143 0 256 -105 256 -248c0 -144 -113 -251 -256 -251c-144 0 -256 107 -256 251c0 143 112 248 256 248zM291 90c80 0 140 65 140 146c0 80 -60 143 -140 143c-82 0 -141 -63 -141 -143c0 -81 59 -146 141 -146z" />
    <glyph glyph-name="oacute" unicode="&#xf3;" 
d="M445 340l294 -295l-25 -25l-294 295l-295 -295l-25 25l295 295l-295 294l25 25l295 -294l294 294l25 -25z" />
    <glyph glyph-name="ocircumflex" unicode="&#xf4;" 
d="M445 340l294 -295l-25 -25l-294 295l-295 -295l-25 25l295 295l-295 294l25 25l295 -294l294 294l25 -25z" />
    <glyph glyph-name="odieresis" unicode="&#xf6;" horiz-adv-x="580" 
d="M187 701c40 0 73 -31 73 -71c0 -39 -33 -70 -73 -70s-73 31 -73 70c0 40 33 71 73 71zM395 701c40 0 73 -31 73 -71c0 -39 -33 -70 -73 -70s-73 31 -73 70c0 40 33 71 73 71zM290 484c143 0 256 -105 256 -248c0 -144 -113 -251 -256 -251c-144 0 -256 107 -256 251
c0 143 112 248 256 248zM291 90c80 0 140 65 140 146c0 80 -60 143 -140 143c-82 0 -141 -63 -141 -143c0 -81 59 -146 141 -146z" />
    <glyph glyph-name="ograve" unicode="&#xf2;" 
d="M445 340l294 -295l-25 -25l-294 295l-295 -295l-25 25l295 295l-295 294l25 25l295 -294l294 294l25 -25z" />
    <glyph glyph-name="ohungarumlaut" unicode="&#x151;" 
d="M445 340l294 -295l-25 -25l-294 295l-295 -295l-25 25l295 295l-295 294l25 25l295 -294l294 294l25 -25z" />
    <glyph glyph-name="omacron" unicode="&#x14d;" 
d="M445 340l294 -295l-25 -25l-294 295l-295 -295l-25 25l295 295l-295 294l25 25l295 -294l294 294l25 -25z" />
    <glyph glyph-name="oslash" unicode="&#xf8;" horiz-adv-x="580" 
d="M507 434l-25 -30c40 -44 64 -102 64 -168c0 -144 -113 -251 -256 -251c-48 0 -93 12 -131 33l-27 -32l-61 50l26 32c-39 43 -63 102 -63 168c0 143 112 248 256 248c47 0 91 -12 129 -32l27 32zM150 236c0 -29 8 -57 22 -80l176 211c-17 8 -36 12 -57 12
c-82 0 -141 -63 -141 -143zM291 90c80 0 140 65 140 146c0 30 -9 57 -23 80l-178 -213c18 -8 39 -13 61 -13z" />
    <glyph glyph-name="otilde" unicode="&#xf5;" 
d="M445 340l294 -295l-25 -25l-294 295l-295 -295l-25 25l295 295l-295 294l25 25l295 -294l294 294l25 -25z" />
    <glyph glyph-name="oe" unicode="&#x153;" horiz-adv-x="951" 
d="M916 244c0 -17 0 -35 -3 -53h-1h-363c15 -59 59 -104 140 -104c45 0 78 15 96 44h123c-27 -87 -115 -146 -223 -146c-84 0 -153 34 -197 89c-47 -55 -118 -89 -198 -89c-144 0 -256 107 -256 251c0 143 112 248 256 248c80 0 151 -33 198 -87c44 54 112 87 192 87
c138 0 236 -98 236 -240zM683 393c-74 0 -119 -50 -134 -111h257c-10 64 -52 111 -123 111zM291 90c80 0 140 65 140 146c0 80 -60 143 -140 143c-82 0 -141 -63 -141 -143c0 -81 59 -146 141 -146z" />
    <glyph glyph-name="p" unicode="p" horiz-adv-x="647" 
d="M375 484c132 0 238 -110 238 -248c0 -137 -106 -247 -238 -247c-58 0 -107 17 -146 45v-135h110v-106h-300v106h75v468h-75v106h190v-34c39 28 88 45 146 45zM357 89c82 0 140 69 140 147c0 79 -58 148 -140 148c-44 0 -87 -15 -128 -56v-183c41 -41 84 -56 128 -56z" />
    <glyph glyph-name="thorn" unicode="&#xfe;" horiz-adv-x="647" 
d="M375 484c132 0 238 -110 238 -248c0 -137 -106 -247 -238 -247c-58 0 -107 17 -146 45v-241h-190v106h75v675h-75v106h190v-241c39 28 88 45 146 45zM357 89c82 0 140 69 140 147c0 79 -58 148 -140 148c-44 0 -87 -15 -128 -56v-183c41 -41 84 -56 128 -56z" />
    <glyph glyph-name="q" unicode="q" horiz-adv-x="645" 
d="M609 -101v-106h-300v106h108v134c-39 -28 -88 -44 -145 -44c-132 0 -238 110 -238 247c0 138 106 248 238 248c57 0 106 -16 145 -44v33h191v-106h-76v-468h77zM289 89c45 0 87 15 128 55v185c-41 40 -83 55 -128 55c-81 0 -140 -69 -140 -148c0 -78 59 -147 140 -147z
" />
    <glyph glyph-name="r" unicode="r" horiz-adv-x="437" 
d="M423 481v-118c-85 -3 -149 -18 -194 -34v-223h118v-106h-308v106h75v261h-75v106h190v-51c47 34 112 59 194 59z" />
    <glyph glyph-name="racute" unicode="&#x155;" 
d="M445 340l294 -295l-25 -25l-294 295l-295 -295l-25 25l295 295l-295 294l25 25l295 -294l294 294l25 -25z" />
    <glyph glyph-name="rcaron" unicode="&#x159;" 
d="M445 340l294 -295l-25 -25l-294 295l-295 -295l-25 25l295 295l-295 294l25 25l295 -294l294 294l25 -25z" />
    <glyph glyph-name="rcommaaccent" unicode="&#x157;" 
d="M445 340l294 -295l-25 -25l-294 295l-295 -295l-25 25l295 295l-295 294l25 25l295 -294l294 294l25 -25z" />
    <glyph glyph-name="s" unicode="s" horiz-adv-x="545" 
d="M256 296l95 -16c75 -13 150 -53 150 -147c0 -89 -67 -148 -182 -148c-77 0 -133 27 -170 58v-43h-105v163l105 -1l1 1c42 -50 83 -88 156 -88c61 0 78 26 78 51c0 26 -18 46 -61 54l-86 14c-102 18 -174 61 -174 149c0 95 83 145 193 145c58 0 100 -16 129 -44v31h104
v-146h-104c-39 43 -68 71 -127 71c-53 0 -74 -23 -74 -49c0 -25 17 -45 72 -55z" />
    <glyph glyph-name="sacute" unicode="&#x15b;" 
d="M445 340l294 -295l-25 -25l-294 295l-295 -295l-25 25l295 295l-295 294l25 25l295 -294l294 294l25 -25z" />
    <glyph glyph-name="scaron" unicode="&#x161;" 
d="M445 340l294 -295l-25 -25l-294 295l-295 -295l-25 25l295 295l-295 294l25 25l295 -294l294 294l25 -25z" />
    <glyph glyph-name="scedilla" unicode="&#x15f;" 
d="M445 340l294 -295l-25 -25l-294 295l-295 -295l-25 25l295 295l-295 294l25 25l295 -294l294 294l25 -25z" />
    <glyph glyph-name="scommaaccent" unicode="&#x219;" 
d="M445 340l294 -295l-25 -25l-294 295l-295 -295l-25 25l295 295l-295 294l25 25l295 -294l294 294l25 -25z" />
    <glyph glyph-name="germandbls" unicode="&#xdf;" horiz-adv-x="692" 
d="M629 401l-144 -177c112 -14 189 -96 189 -208c0 -133 -110 -213 -241 -213c-96 0 -166 43 -224 102l68 77c45 -45 91 -77 149 -77c69 0 132 47 132 117c0 61 -48 104 -118 104h-115v57l144 184h-240v-261h1v-106h-191v106h75v439c0 123 82 206 206 206v-113
c-55 0 -91 -37 -91 -93v-72h399v-72h1z" />
    <glyph glyph-name="t" unicode="t" horiz-adv-x="458" 
d="M418 104l16 -99c-52 -16 -77 -20 -118 -20c-112 0 -183 75 -183 197v185h-116v106h116v147h115v-147h167v-106h-167v-185c0 -63 34 -90 91 -90c26 0 55 5 79 12z" />
    <glyph glyph-name="tcaron" unicode="&#x165;" 
d="M445 340l294 -295l-25 -25l-294 295l-295 -295l-25 25l295 295l-295 294l25 25l295 -294l294 294l25 -25z" />
    <glyph glyph-name="tcedilla" unicode="&#x163;" 
d="M445 340l294 -295l-25 -25l-294 295l-295 -295l-25 25l295 295l-295 294l25 25l295 -294l294 294l25 -25z" />
    <glyph glyph-name="uni021B" unicode="&#x21b;" 
d="M445 340l294 -295l-25 -25l-294 295l-295 -295l-25 25l295 295l-295 294l25 25l295 -294l294 294l25 -25z" />
    <glyph glyph-name="tbar" unicode="&#x167;" 
d="M445 340l294 -295l-25 -25l-294 295l-295 -295l-25 25l295 295l-295 294l25 25l295 -294l294 294l25 -25z" />
    <glyph glyph-name="u" unicode="u" horiz-adv-x="666" 
d="M638 106v-106h-192v39c-41 -34 -89 -54 -146 -54c-124 0 -207 90 -207 227v155h-76v106h191v-254c0 -82 44 -129 116 -129c41 0 86 24 122 69v208h-75v106h190v-367h77z" />
    <glyph glyph-name="uacute" unicode="&#xfa;" 
d="M445 340l294 -295l-25 -25l-294 295l-295 -295l-25 25l295 295l-295 294l25 25l295 -294l294 294l25 -25z" />
    <glyph glyph-name="ucircumflex" unicode="&#xfb;" 
d="M445 340l294 -295l-25 -25l-294 295l-295 -295l-25 25l295 295l-295 294l25 25l295 -294l294 294l25 -25z" />
    <glyph glyph-name="udieresis" unicode="&#xfc;" horiz-adv-x="666" 
d="M227 560c-40 0 -73 31 -73 70c0 40 33 71 73 71s73 -31 73 -71c0 -39 -33 -70 -73 -70zM435 560c-40 0 -73 31 -73 70c0 40 33 71 73 71s73 -31 73 -71c0 -39 -33 -70 -73 -70zM638 106v-106h-192v39c-41 -34 -89 -54 -146 -54c-124 0 -207 90 -207 227v155h-76v106h191
v-254c0 -82 44 -129 116 -129c41 0 86 24 122 69v208h-75v106h190v-367h77z" />
    <glyph glyph-name="ugrave" unicode="&#xf9;" 
d="M445 340l294 -295l-25 -25l-294 295l-295 -295l-25 25l295 295l-295 294l25 25l295 -294l294 294l25 -25z" />
    <glyph glyph-name="uhungarumlaut" unicode="&#x171;" 
d="M445 340l294 -295l-25 -25l-294 295l-295 -295l-25 25l295 295l-295 294l25 25l295 -294l294 294l25 -25z" />
    <glyph glyph-name="umacron" unicode="&#x16b;" 
d="M445 340l294 -295l-25 -25l-294 295l-295 -295l-25 25l295 295l-295 294l25 25l295 -294l294 294l25 -25z" />
    <glyph glyph-name="uogonek" unicode="&#x173;" 
d="M445 340l294 -295l-25 -25l-294 295l-295 -295l-25 25l295 295l-295 294l25 25l295 -294l294 294l25 -25z" />
    <glyph glyph-name="uring" unicode="&#x16f;" 
d="M445 340l294 -295l-25 -25l-294 295l-295 -295l-25 25l295 295l-295 294l25 25l295 -294l294 294l25 -25z" />
    <glyph glyph-name="v" unicode="v" horiz-adv-x="620" 
d="M608 367h-60l-182 -367h-112l-182 367h-61v106h260v-106h-68l107 -232l107 232h-69v106h260v-106z" />
    <glyph glyph-name="w" unicode="w" horiz-adv-x="812" 
d="M801 367h-52l-144 -367h-101l-98 289l-99 -289h-99l-144 367h-52v106h234v-106h-65l76 -205l108 311h81l109 -313l77 207h-65v106h234v-106z" />
    <glyph glyph-name="wacute" unicode="&#x1e83;" 
d="M445 340l294 -295l-25 -25l-294 295l-295 -295l-25 25l295 295l-295 294l25 25l295 -294l294 294l25 -25z" />
    <glyph glyph-name="wcircumflex" unicode="&#x175;" 
d="M445 340l294 -295l-25 -25l-294 295l-295 -295l-25 25l295 295l-295 294l25 25l295 -294l294 294l25 -25z" />
    <glyph glyph-name="wdieresis" unicode="&#x1e85;" 
d="M445 340l294 -295l-25 -25l-294 295l-295 -295l-25 25l295 295l-295 294l25 25l295 -294l294 294l25 -25z" />
    <glyph glyph-name="wgrave" unicode="&#x1e81;" 
d="M445 340l294 -295l-25 -25l-294 295l-295 -295l-25 25l295 295l-295 294l25 25l295 -294l294 294l25 -25z" />
    <glyph glyph-name="x" unicode="x" horiz-adv-x="613" 
d="M381 239l-2 -2l108 -131h103v-106h-236v97l-47 59l-48 -59v-97h-236v106h102l107 131l-2 2l-105 128h-102v106h236v-99l46 -59l49 62v96h236v-106h-103z" />
    <glyph glyph-name="y" unicode="y" horiz-adv-x="656" 
d="M573 367l-242 -468h55v-106h-305v106h124l54 105l-178 363h-70v106h260v-106h-61l113 -236l120 236h-58v106h260v-106h-72z" />
    <glyph glyph-name="yacute" unicode="&#xfd;" 
d="M445 340l294 -295l-25 -25l-294 295l-295 -295l-25 25l295 295l-295 294l25 25l295 -294l294 294l25 -25z" />
    <glyph glyph-name="ycircumflex" unicode="&#x177;" 
d="M445 340l294 -295l-25 -25l-294 295l-295 -295l-25 25l295 295l-295 294l25 25l295 -294l294 294l25 -25z" />
    <glyph glyph-name="ydieresis" unicode="&#xff;" 
d="M445 340l294 -295l-25 -25l-294 295l-295 -295l-25 25l295 295l-295 294l25 25l295 -294l294 294l25 -25z" />
    <glyph glyph-name="ygrave" unicode="&#x1ef3;" 
d="M445 340l294 -295l-25 -25l-294 295l-295 -295l-25 25l295 295l-295 294l25 25l295 -294l294 294l25 -25z" />
    <glyph glyph-name="z" unicode="z" horiz-adv-x="522" 
d="M486 178v-178h-445v68l283 308h-177v-73h-108v170h437v-76h1l-276 -300h177v81h108z" />
    <glyph glyph-name="zacute" unicode="&#x17a;" 
d="M445 340l294 -295l-25 -25l-294 295l-295 -295l-25 25l295 295l-295 294l25 25l295 -294l294 294l25 -25z" />
    <glyph glyph-name="zcaron" unicode="&#x17e;" 
d="M445 340l294 -295l-25 -25l-294 295l-295 -295l-25 25l295 295l-295 294l25 25l295 -294l294 294l25 -25z" />
    <glyph glyph-name="zdotaccent" unicode="&#x17c;" 
d="M445 340l294 -295l-25 -25l-294 295l-295 -295l-25 25l295 295l-295 294l25 25l295 -294l294 294l25 -25z" />
    <glyph glyph-name="germandbls.case" horiz-adv-x="1349" 
d="M318 402l105 -17c134 -22 212 -84 212 -197c0 -125 -94 -202 -249 -202c-102 0 -172 33 -218 85v-71h-112v222h112c57 -80 105 -126 216 -126c76 0 127 34 127 86c0 39 -25 79 -107 92l-131 22c-136 21 -201 91 -201 194c0 124 95 205 250 205c85 0 154 -24 200 -74v59
h103v-201h-110c-33 60 -85 112 -187 112c-84 0 -130 -36 -130 -95c0 -55 41 -81 120 -94zM987 402l105 -17c134 -22 212 -84 212 -197c0 -125 -94 -202 -249 -202c-102 0 -172 33 -218 85v-71h-112v222h112c57 -80 105 -126 216 -126c76 0 127 34 127 86
c0 39 -25 79 -107 92l-131 22c-136 21 -201 91 -201 194c0 124 95 205 250 205c85 0 154 -24 200 -74v59h103v-201h-110c-33 60 -85 112 -187 112c-84 0 -130 -36 -130 -95c0 -55 41 -81 120 -94z" />
    <glyph glyph-name="l.ss01" horiz-adv-x="408" 
d="M369 109l16 -104c-44 -13 -75 -20 -110 -20c-104 0 -161 59 -161 165v454h-75v106h190v-547c0 -45 21 -67 64 -67c21 0 52 6 76 13z" />
    <glyph glyph-name="lacute.ss01" 
d="M445 340l294 -295l-25 -25l-294 295l-295 -295l-25 25l295 295l-295 294l25 25l295 -294l294 294l25 -25z" />
    <glyph glyph-name="lcaron.ss01" 
d="M445 340l294 -295l-25 -25l-294 295l-295 -295l-25 25l295 295l-295 294l25 25l295 -294l294 294l25 -25z" />
    <glyph glyph-name="lcommaaccent.ss01" 
d="M445 340l294 -295l-25 -25l-294 295l-295 -295l-25 25l295 295l-295 294l25 25l295 -294l294 294l25 -25z" />
    <glyph glyph-name="ldot.ss01" 
d="M445 340l294 -295l-25 -25l-294 295l-295 -295l-25 25l295 295l-295 294l25 25l295 -294l294 294l25 -25z" />
    <glyph glyph-name="lslash.ss01" 
d="M445 340l294 -295l-25 -25l-294 295l-295 -295l-25 25l295 295l-295 294l25 25l295 -294l294 294l25 -25z" />
    <glyph glyph-name="y.ss04" horiz-adv-x="629" 
d="M563 473v-484c0 -139 -104 -225 -245 -225c-137 0 -234 81 -246 196h117c8 -54 55 -91 126 -91c77 0 133 44 133 120v51c-41 -35 -89 -55 -146 -55c-126 0 -209 90 -209 227v155h-76v106h191v-254c0 -82 43 -129 118 -129c42 0 86 25 122 69v208h-76v106h191z" />
    <glyph glyph-name="yacute.ss04" 
d="M445 340l294 -295l-25 -25l-294 295l-295 -295l-25 25l295 295l-295 294l25 25l295 -294l294 294l25 -25z" />
    <glyph glyph-name="ycircumflex.ss04" 
d="M445 340l294 -295l-25 -25l-294 295l-295 -295l-25 25l295 295l-295 294l25 25l295 -294l294 294l25 -25z" />
    <glyph glyph-name="ydieresis.ss04" 
d="M445 340l294 -295l-25 -25l-294 295l-295 -295l-25 25l295 295l-295 294l25 25l295 -294l294 294l25 -25z" />
    <glyph glyph-name="ygrave.ss04" 
d="M445 340l294 -295l-25 -25l-294 295l-295 -295l-25 25l295 295l-295 294l25 25l295 -294l294 294l25 -25z" />
    <glyph glyph-name="a.ss06" horiz-adv-x="583" 
d="M557 106v-106h-189v27c-39 -21 -86 -37 -144 -37c-120 0 -190 58 -190 153c0 90 71 137 186 137h148v12c0 58 -29 97 -99 97c-51 0 -90 -23 -97 -67h-116c8 117 113 166 212 166c128 0 214 -66 214 -196v-186h75zM238 85c46 0 83 10 130 42v67h-150
c-54 0 -74 -24 -74 -50c0 -32 27 -59 94 -59z" />
    <glyph glyph-name="aacute.ss06" 
d="M445 340l294 -295l-25 -25l-294 295l-295 -295l-25 25l295 295l-295 294l25 25l295 -294l294 294l25 -25z" />
    <glyph glyph-name="abreve.ss06" 
d="M445 340l294 -295l-25 -25l-294 295l-295 -295l-25 25l295 295l-295 294l25 25l295 -294l294 294l25 -25z" />
    <glyph glyph-name="acaron.ss06" 
d="M445 340l294 -295l-25 -25l-294 295l-295 -295l-25 25l295 295l-295 294l25 25l295 -294l294 294l25 -25z" />
    <glyph glyph-name="acircumflex.ss06" 
d="M445 340l294 -295l-25 -25l-294 295l-295 -295l-25 25l295 295l-295 294l25 25l295 -294l294 294l25 -25z" />
    <glyph glyph-name="adieresis.ss06" horiz-adv-x="583" 
d="M173 560c-40 0 -73 31 -73 70c0 40 33 71 73 71s73 -31 73 -71c0 -39 -33 -70 -73 -70zM381 560c-40 0 -73 31 -73 70c0 40 33 71 73 71s73 -31 73 -71c0 -39 -33 -70 -73 -70zM557 106v-106h-189v27c-39 -21 -86 -37 -144 -37c-120 0 -190 58 -190 153
c0 90 71 137 186 137h148v12c0 58 -29 97 -99 97c-51 0 -90 -23 -97 -67h-116c8 117 113 166 212 166c128 0 214 -66 214 -196v-186h75zM238 85c46 0 83 10 130 42v67h-150c-54 0 -74 -24 -74 -50c0 -32 27 -59 94 -59z" />
    <glyph glyph-name="agrave.ss06" 
d="M445 340l294 -295l-25 -25l-294 295l-295 -295l-25 25l295 295l-295 294l25 25l295 -294l294 294l25 -25z" />
    <glyph glyph-name="amacron.ss06" 
d="M445 340l294 -295l-25 -25l-294 295l-295 -295l-25 25l295 295l-295 294l25 25l295 -294l294 294l25 -25z" />
    <glyph glyph-name="aogonek.ss06" 
d="M445 340l294 -295l-25 -25l-294 295l-295 -295l-25 25l295 295l-295 294l25 25l295 -294l294 294l25 -25z" />
    <glyph glyph-name="aring.ss06" 
d="M445 340l294 -295l-25 -25l-294 295l-295 -295l-25 25l295 295l-295 294l25 25l295 -294l294 294l25 -25z" />
    <glyph glyph-name="atilde.ss06" 
d="M445 340l294 -295l-25 -25l-294 295l-295 -295l-25 25l295 295l-295 294l25 25l295 -294l294 294l25 -25z" />
    <glyph glyph-name="k.ss09" horiz-adv-x="671" 
d="M654 106v-106h-240v96l-79 102h-106v-92h85v-106h-275v106h75v498h-75v106h190v-408h104l53 65h-1v106h243v-106h-113l-92 -113l119 -148h112z" />
    <glyph glyph-name="kcommaaccent.ss09" 
d="M445 340l294 -295l-25 -25l-294 295l-295 -295l-25 25l295 295l-295 294l25 25l295 -294l294 294l25 -25z" />
    <glyph glyph-name="j.ss10" horiz-adv-x="296" 
d="M171 553c-43 0 -79 33 -79 76c0 44 36 77 79 77c44 0 78 -33 78 -77c0 -43 -34 -76 -78 -76zM229 473v-533l-55 -193h-60v620h-75v106h190z" />
    <glyph glyph-name="t.ss11" horiz-adv-x="557" 
d="M482 159l64 -72c-52 -61 -121 -102 -210 -102c-126 0 -204 76 -204 212v170h-116v106h116v147h115v-147h234v-106h-234v-173c0 -70 41 -107 99 -107c40 0 81 22 136 72z" />
    <glyph glyph-name="tcaron.ss11" 
d="M445 340l294 -295l-25 -25l-294 295l-295 -295l-25 25l295 295l-295 294l25 25l295 -294l294 294l25 -25z" />
    <glyph glyph-name="tcedilla.ss11" 
d="M445 340l294 -295l-25 -25l-294 295l-295 -295l-25 25l295 295l-295 294l25 25l295 -294l294 294l25 -25z" />
    <glyph glyph-name="uni021B.ss11" 
d="M445 340l294 -295l-25 -25l-294 295l-295 -295l-25 25l295 295l-295 294l25 25l295 -294l294 294l25 -25z" />
    <glyph glyph-name="germandbls.ss14" horiz-adv-x="681" 
d="M506 363c85 -22 136 -78 136 -168c0 -123 -93 -200 -251 -200c-18 0 -39 1 -62 3v96c22 -1 43 -1 55 -1c99 0 146 43 146 104s-49 95 -119 95h-63v85c97 17 124 73 124 119c0 54 -37 98 -110 98c-77 1 -125 -47 -132 -142v-85h-1v-261h1v-106h-191v106h75v261h-75v106h78
c15 142 104 222 243 222c140 0 224 -80 224 -197c0 -58 -22 -106 -78 -135z" />
    <glyph glyph-name="fl.ss01" horiz-adv-x="828" 
d="M789 109l16 -104c-44 -13 -75 -20 -110 -20c-104 0 -161 59 -161 165v456c-51 36 -94 47 -135 47c-95 0 -141 -56 -141 -132v-48h179v-106h-179v-261h114v-106h-305v106h76v261h-133v106h133v48c0 147 102 238 249 238c56 0 110 -14 178 -50h79v-546c0 -45 21 -67 64 -67
c21 0 52 6 76 13z" />
    <glyph glyph-name="f_b" horiz-adv-x="1058" 
d="M786 484c132 0 238 -110 238 -247c0 -138 -106 -248 -238 -248c-57 0 -106 16 -145 44v-33h-191v106h76v505c-48 32 -88 42 -127 42c-95 0 -141 -56 -141 -132v-48h179v-106h-179v-261h114v-106h-305v106h76v261h-133v106h133v48c0 147 102 238 249 238
c56 0 110 -14 178 -50h71v-269c39 28 88 44 145 44zM768 89c82 0 140 69 140 148c0 78 -58 147 -140 147c-44 0 -86 -15 -127 -55v-185c41 -40 83 -55 127 -55z" />
    <glyph glyph-name="f_f_b" horiz-adv-x="1454" 
d="M1182 484c132 0 238 -110 238 -247c0 -138 -106 -248 -238 -248c-57 0 -106 16 -145 44v-33h-191v106h76v505c-48 32 -88 42 -127 42c-95 0 -141 -56 -141 -132v-48h179v-106h-179v-261h114v-106h-305v106h76v261h-281v-261h114v-106h-305v106h76v261h-133v106h133v48
c0 147 102 238 249 238c65 0 127 -18 211 -69c44 44 108 69 185 69c56 0 110 -14 178 -50h71v-269c39 28 88 44 145 44zM539 473v48c0 27 3 52 10 75c-59 43 -105 57 -150 57c-95 0 -141 -56 -141 -132v-48h281zM1164 89c82 0 140 69 140 148c0 78 -58 147 -140 147
c-44 0 -86 -15 -127 -55v-185c41 -40 83 -55 127 -55z" />
    <glyph glyph-name="f_f_f" horiz-adv-x="1234" 
d="M1050 473h179v-106h-179v-261h114v-106h-305v106h76v261h-281v-261h114v-106h-305v106h76v261h-281v-261h114v-106h-305v106h76v261h-133v106h133v48c0 147 102 238 249 238c65 0 127 -18 211 -69c44 44 108 69 185 69c61 0 120 -17 196 -60c34 38 83 60 143 60
c32 0 72 -5 109 -15l-16 -95c-24 5 -53 9 -71 9c-60 0 -99 -38 -99 -107v-78zM539 473v48c0 27 3 52 10 75c-59 43 -105 57 -150 57c-95 0 -141 -56 -141 -132v-48h281zM935 473v78c0 17 1 33 4 49c-56 40 -100 53 -144 53c-95 0 -141 -56 -141 -132v-48h281z" />
    <glyph glyph-name="f_f_h" horiz-adv-x="1491" 
d="M1467 106v-106h-267v106h75v148c0 83 -43 129 -116 129c-41 0 -86 -24 -122 -69v-208h76v-106h-267v106h76v505c-48 32 -88 42 -127 42c-95 0 -141 -56 -141 -132v-48h179v-106h-179v-261h114v-106h-305v106h76v261h-281v-261h114v-106h-305v106h76v261h-133v106h133v48
c0 147 102 238 249 238c65 0 127 -18 211 -69c44 44 108 69 185 69c56 0 110 -14 178 -50h71v-275c40 34 89 54 146 54c125 0 208 -90 208 -227v-155h76zM539 473v48c0 27 3 52 10 75c-59 43 -105 57 -150 57c-95 0 -141 -56 -141 -132v-48h281z" />
    <glyph glyph-name="f_f_j" horiz-adv-x="1088" 
d="M1043 473v-508c0 -126 -35 -180 -164 -223l-44 94c71 32 93 54 93 119v412h-274v-261h114v-106h-305v106h76v261h-281v-261h114v-106h-305v106h76v261h-133v106h133v48c0 147 102 238 249 238c63 0 124 -18 204 -64c37 41 91 64 155 64c72 0 110 -12 181 -30l-22 -99
c-53 13 -88 23 -145 23c-70 0 -111 -47 -111 -125v-55h389zM539 473v55c0 25 3 48 8 69c-58 43 -103 56 -148 56c-95 0 -141 -56 -141 -132v-48h281z" />
    <glyph glyph-name="f_f_k" horiz-adv-x="1499" 
d="M1481 106v-106h-220v74l-117 144l-107 -86v-26h84v-106h-275v106h76v505c-48 32 -88 42 -127 42c-95 0 -141 -56 -141 -132v-48h179v-106h-179v-261h114v-106h-305v106h76v261h-281v-261h114v-106h-305v106h76v261h-133v106h133v48c0 147 102 238 249 238
c65 0 127 -18 211 -69c44 44 108 69 185 69c56 0 110 -14 178 -50h71v-455l155 124v95h242v-106h-105l-98 -79l147 -182h103zM539 473v48c0 27 3 52 10 75c-59 43 -105 57 -150 57c-95 0 -141 -56 -141 -132v-48h281z" />
    <glyph glyph-name="f_f_k.ss09" horiz-adv-x="1478" 
d="M1461 106v-106h-240v98l-78 100h-106v-92h84v-106h-275v106h76v505c-48 32 -88 42 -127 42c-95 0 -141 -56 -141 -132v-48h179v-106h-179v-261h114v-106h-305v106h76v261h-281v-261h114v-106h-305v106h76v261h-133v106h133v48c0 147 102 238 249 238
c65 0 127 -18 211 -69c44 44 108 69 185 69c56 0 110 -14 178 -50h71v-407h103l53 65v106h243v-106h-114l-91 -112l119 -149h111zM539 473v48c0 27 3 52 10 75c-59 43 -105 57 -150 57c-95 0 -141 -56 -141 -132v-48h281z" />
    <glyph glyph-name="f_f_l.ss01" horiz-adv-x="1224" 
d="M1185 109l16 -104c-44 -13 -75 -20 -110 -20c-104 0 -161 59 -161 165v456c-51 36 -94 47 -135 47c-95 0 -141 -56 -141 -132v-48h179v-106h-179v-261h114v-106h-305v106h76v261h-281v-261h114v-106h-305v106h76v261h-133v106h133v48c0 147 102 238 249 238
c65 0 127 -18 211 -69c44 44 108 69 185 69c56 0 110 -14 178 -50h79v-546c0 -45 21 -67 64 -67c21 0 52 6 76 13zM539 473v48c0 27 3 52 10 75c-59 43 -105 57 -150 57c-95 0 -141 -56 -141 -132v-48h281z" />
    <glyph glyph-name="f_f_t" horiz-adv-x="1263" 
d="M1223 104l16 -99c-52 -16 -77 -20 -118 -20c-112 0 -183 75 -183 197v185h-284v-261h114v-106h-305v106h76v261h-281v-261h114v-106h-305v106h76v261h-133v106h133v48c0 147 102 238 249 238c61 0 120 -17 196 -60c34 38 83 60 143 60c32 0 72 -5 109 -15l-16 -95
c-24 5 -53 9 -71 9c-60 0 -99 -38 -99 -107v-78h284v147h115v-147h167v-106h-167v-185c0 -63 34 -90 91 -90c26 0 55 5 79 12zM539 473v78c0 17 1 33 4 49c-56 40 -100 53 -144 53c-95 0 -141 -56 -141 -132v-48h281z" />
    <glyph glyph-name="f_h" horiz-adv-x="1095" 
d="M1071 106v-106h-267v106h75v148c0 83 -43 129 -116 129c-41 0 -86 -24 -122 -69v-208h76v-106h-267v106h76v505c-48 32 -88 42 -127 42c-95 0 -141 -56 -141 -132v-48h179v-106h-179v-261h114v-106h-305v106h76v261h-133v106h133v48c0 147 102 238 249 238
c56 0 110 -14 178 -50h71v-275c40 34 89 54 146 54c125 0 208 -90 208 -227v-155h76z" />
    <glyph glyph-name="f_j" horiz-adv-x="692" 
d="M647 473v-508c0 -126 -35 -180 -164 -223l-44 94c71 32 93 54 93 119v412h-274v-261h114v-106h-305v106h76v261h-133v106h133v55c0 142 86 231 212 231c72 0 110 -12 181 -30l-22 -99c-53 13 -88 23 -145 23c-70 0 -111 -47 -111 -125v-55h389z" />
    <glyph glyph-name="f_k" horiz-adv-x="1103" 
d="M1085 106v-106h-220v74l-117 144l-107 -86v-26h84v-106h-275v106h76v505c-48 32 -88 42 -127 42c-95 0 -141 -56 -141 -132v-48h179v-106h-179v-261h114v-106h-305v106h76v261h-133v106h133v48c0 147 102 238 249 238c56 0 110 -14 178 -50h71v-455l155 124v95h242v-106
h-105l-98 -79l147 -182h103z" />
    <glyph glyph-name="f_k.ss09" horiz-adv-x="1083" 
d="M1065 106v-106h-240v98l-78 100h-106v-92h84v-106h-275v106h76v505c-48 32 -88 42 -127 42c-95 0 -141 -56 -141 -132v-48h179v-106h-179v-261h114v-106h-305v106h76v261h-133v106h133v48c0 147 102 238 249 238c56 0 110 -14 178 -50h71v-407h103l53 65v106h243v-106
h-114l-91 -112l119 -149h111z" />
    <glyph glyph-name="r_f" horiz-adv-x="855" 
d="M671 473h185v-106h-185v-261h115v-106h-307v106h77v261h-123c-90 0 -157 -24 -204 -44v-217h118v-106h-308v106h75v261h-75v106h190v-60c49 35 118 60 204 60h123v78c0 127 76 208 192 208c32 0 72 -5 109 -15l-16 -95c-24 5 -53 9 -71 9c-60 0 -99 -38 -99 -107v-78z
" />
    <glyph glyph-name="r_i" horiz-adv-x="769" 
d="M599 553c-44 0 -79 33 -79 76c0 44 35 77 79 77c43 0 78 -33 78 -77c0 -43 -35 -76 -78 -76zM733 106v-106h-267v106h75v250h-107c-94 0 -159 -17 -205 -34v-216h118v-106h-308v106h75v261h-75v106h190v-59c47 35 114 59 205 59h222v-367h77z" />
    <glyph glyph-name="r_j" horiz-adv-x="718" 
d="M595 553c-43 0 -79 33 -79 76c0 44 36 77 79 77c44 0 78 -33 78 -77c0 -43 -34 -76 -78 -76zM653 473v-508c0 -126 -35 -180 -164 -223l-44 94c71 32 93 54 93 119v401h-104c-94 0 -159 -17 -205 -34v-216h118v-106h-308v106h75v261h-75v106h190v-59c47 35 114 59 205 59
h219z" />
    <glyph glyph-name="r_t" horiz-adv-x="836" 
d="M796 104l16 -99c-52 -16 -77 -20 -118 -20c-112 0 -183 75 -183 197v185h-77c-94 0 -159 -24 -205 -43v-218h118v-106h-308v106h75v261h-75v106h190v-59c47 35 114 59 205 59h77v147h115v-147h166v-106h-166v-185c0 -63 34 -90 91 -90c26 0 55 5 79 12z" />
    <glyph glyph-name="r_t.ss11" horiz-adv-x="913" 
d="M838 159l64 -72c-52 -61 -121 -102 -210 -102c-126 0 -204 76 -204 212v170h-19c-133 0 -197 -23 -240 -43v-218h118v-106h-308v106h75v261h-75v106h190v-57c40 33 88 56 143 57h116v147h115v-147h234v-106h-234v-173c0 -70 41 -107 99 -107c40 0 81 22 136 72z" />
    <glyph glyph-name="t_y" horiz-adv-x="1046" 
d="M962 367l-242 -468h55v-106h-305v106h124l54 105l-178 363h-222v-185c0 -63 34 -90 91 -90c26 0 55 5 79 12l16 -99c-52 -16 -77 -20 -118 -20c-112 0 -183 75 -183 197v185h-116v106h116v147h115v-147h412v-106h-61l113 -236l120 236h-58v106h260v-106h-72z" />
    <glyph glyph-name="t_y.ss11" horiz-adv-x="1153" 
d="M1069 367l-242 -468h55v-106h-305v106h124l54 105l-178 363h-330v-173c0 -70 41 -107 99 -107c40 0 81 22 136 72l64 -72c-52 -61 -121 -102 -210 -102c-126 0 -204 76 -204 212v170h-116v106h116v147h115v-147h520v-106h-61l113 -236l120 236h-58v106h260v-106h-72z" />
    <glyph glyph-name="T_h" horiz-adv-x="1257" 
d="M1233 106v-106h-267v106h75v148c0 83 -43 129 -116 129c-41 0 -86 -24 -122 -69v-208h77v-106h-267v106h75v463h-281v-463h113v-106h-348v106h115v463h-146v-117h-108v228h655v39h115v-285c40 34 89 54 146 54c125 0 208 -90 208 -227v-155h76z" />
    <glyph glyph-name="r_u" horiz-adv-x="1059" 
d="M1031 106v-106h-191v39c-41 -34 -89 -54 -146 -54c-124 0 -207 90 -207 227v155h-64c-85 0 -149 -27 -194 -60v-201h118v-106h-308v106h75v261h-75v106h190v-59c47 35 112 59 194 59h179v-254c0 -82 44 -129 116 -129c41 0 86 24 122 69v208h-76v106h191v-367h76z" />
    <glyph glyph-name="w_w_w" horiz-adv-x="2306" 
d="M2295 367h-52l-144 -367h-101l-98 289l-99 -289h-99l-144 367h-61l-144 -367h-101l-98 289l-99 -289h-99l-144 367h-63l-144 -367h-101l-98 289l-99 -289h-99l-144 367h-52v106h234v-106h-65l76 -205l108 311h81l109 -313l77 207h-65v106h427v-106h-65l76 -205l108 311
h81l109 -313l77 207h-65v106h425v-106h-65l76 -205l108 311h81l109 -313l77 207h-65v106h234v-106z" />
    <glyph glyph-name="r_y" horiz-adv-x="1033" 
d="M949 367l-242 -468h55v-106h-305v106h124l54 105l-178 363h-11c-103 -3 -171 -21 -217 -38v-223h118v-106h-308v106h75v261h-75v106h190v-51c41 31 91 51 158 51h260v-106h-61l113 -236l120 236h-58v106h260v-106h-72z" />
    <glyph glyph-name="t_u" horiz-adv-x="1083" 
d="M1055 106v-106h-192v39c-41 -34 -89 -54 -146 -54c-124 0 -207 90 -207 227v155h-262v-185c0 -63 34 -90 91 -90c26 0 55 5 79 12l16 -99c-52 -16 -77 -20 -118 -20c-112 0 -183 75 -183 197v185h-116v106h116v147h115v-147h377v-254c0 -82 44 -129 116 -129
c41 0 86 24 122 69v208h-75v106h190v-367h77z" />
    <glyph glyph-name="t_u.ss11" horiz-adv-x="1149" 
d="M1121 106v-106h-192v39c-41 -34 -89 -54 -146 -54c-124 0 -207 90 -207 227v155h-329v-173c0 -70 41 -107 99 -107c40 0 81 22 136 72l64 -72c-52 -61 -121 -102 -210 -102c-126 0 -204 76 -204 212v170h-116v106h116v147h115v-147h444v-254c0 -82 44 -129 116 -129
c41 0 86 24 122 69v208h-75v106h190v-367h77z" />
    <glyph glyph-name="t_t" horiz-adv-x="853" 
d="M813 104l16 -99c-52 -16 -77 -20 -118 -20c-112 0 -183 75 -183 197v185h-280v-185c0 -63 34 -90 91 -90c26 0 55 5 79 12l16 -99c-52 -16 -77 -20 -118 -20c-112 0 -183 75 -183 197v185h-116v106h116v147h115v-147h280v147h115v-147h167v-106h-167v-185
c0 -63 34 -90 91 -90c26 0 55 5 79 12z" />
    <glyph glyph-name="t_t.ss11" horiz-adv-x="1006" 
d="M931 159l64 -72c-52 -61 -121 -102 -210 -102c-126 0 -204 76 -204 212v170h-334v-173c0 -70 41 -107 99 -107c40 0 81 22 136 72l64 -72c-52 -61 -121 -102 -210 -102c-126 0 -204 76 -204 212v170h-116v106h116v147h115v-147h334v147h115v-147h234v-106h-234v-173
c0 -70 41 -107 99 -107c40 0 81 22 136 72z" />
    <glyph glyph-name="r_w" horiz-adv-x="1229" 
d="M1218 367h-52l-144 -367h-101l-98 289l-99 -289h-99l-144 367h-58c-85 0 -149 -27 -194 -60v-201h118v-106h-308v106h75v261h-75v106h190v-59c47 35 112 59 194 59h240v-106h-65l76 -205l108 311h81l109 -313l77 207h-65v106h234v-106z" />
    <glyph glyph-name="y_t" horiz-adv-x="1027" 
d="M987 104l16 -99c-52 -16 -77 -20 -118 -20c-112 0 -183 75 -183 197v185h-129l-242 -468h55v-106h-305v106h124l54 105l-178 363h-70v106h260v-106h-61l113 -236l120 236h-58v106h317v147h115v-147h167v-106h-167v-185c0 -63 34 -90 91 -90c26 0 55 5 79 12z" />
    <glyph glyph-name="y_t.ss11" horiz-adv-x="1133" 
d="M1058 159l64 -72c-52 -61 -121 -102 -210 -102c-126 0 -204 76 -204 212v170h-135l-242 -468h55v-106h-305v106h124l54 105l-178 363h-70v106h260v-106h-61l113 -236l120 236h-58v106h323v147h115v-147h234v-106h-234v-173c0 -70 41 -107 99 -107c40 0 81 22 136 72z" />
    <glyph glyph-name="ordfeminine" unicode="&#xaa;" horiz-adv-x="390" 
d="M369 438v-68h-117v16c-24 -13 -52 -22 -89 -22c-80 0 -132 38 -132 101c0 60 47 91 122 91h99v11h1c0 30 -13 61 -66 61c-33 0 -61 -15 -65 -45h-77c5 79 76 112 142 112c86 0 142 -50 142 -128h-1v-129h41zM105 469c0 -21 18 -42 62 -42c30 0 55 6 85 27v45h-104
c-27 0 -43 -13 -43 -30z" />
    <glyph glyph-name="ordmasculine" unicode="&#xba;" horiz-adv-x="387" 
d="M193 695c100 0 173 -72 173 -168c0 -98 -73 -169 -173 -169s-173 71 -173 169c0 96 73 168 173 168zM194 425c55 0 102 47 102 102s-47 100 -102 100c-56 0 -103 -45 -103 -100s47 -102 103 -102z" />
    <glyph glyph-name="zero" unicode="0" horiz-adv-x="706" 
d="M353 695c192 0 306 -151 306 -355s-114 -355 -306 -355c-191 0 -306 151 -306 355s115 355 306 355zM354 95c120 0 183 107 183 245s-63 245 -183 245c-121 0 -184 -107 -184 -245s63 -245 184 -245z" />
    <glyph glyph-name="one" unicode="1" horiz-adv-x="516" 
d="M508 106v-106h-466v106h179v446l-170 -54v102l221 80h69v-574h167z" />
    <glyph glyph-name="two" unicode="2" horiz-adv-x="597" 
d="M542 106v-106h-488v62l2 1l226 222c84 81 118 136 118 194c0 60 -40 113 -116 113c-70 0 -120 -45 -120 -113h-110c0 129 96 216 234 216c143 0 232 -92 232 -212c0 -85 -41 -157 -142 -256l-124 -121h288z" />
    <glyph glyph-name="three" unicode="3" horiz-adv-x="569" 
d="M519 599l-181 -186c123 -14 203 -84 203 -203c0 -132 -100 -225 -253 -225c-139 0 -242 74 -262 201h116c16 -58 65 -99 146 -99c85 0 141 48 141 120s-55 107 -139 107l-84 -1l-37 76l181 188h-282v103h451v-81z" />
    <glyph glyph-name="four" unicode="4" horiz-adv-x="655" 
d="M502 189v-83h76v-106h-317v106h126v83h-353v74l195 417h122l-176 -388h212v151h115v-151h94v-103h-94z" />
    <glyph glyph-name="five" unicode="5" horiz-adv-x="607" 
d="M204 433h100c149 0 250 -85 250 -219c0 -133 -101 -229 -252 -229v102c84 0 140 53 140 126c0 71 -55 118 -138 118h-210v349h428v-106h-318v-141zM39 186h116c18 -60 64 -99 146 -99v-102c-149 0 -242 79 -262 201z" />
    <glyph glyph-name="six" unicode="6" horiz-adv-x="617" 
d="M306 463h4c151 0 259 -100 259 -236c0 -137 -108 -242 -260 -242c-154 0 -261 107 -261 239c0 59 22 107 61 169l98 -67c-31 -44 -44 -71 -44 -107c0 -74 60 -138 146 -138c85 0 145 64 145 139c0 76 -59 139 -145 139c-39 0 -74 -11 -99 -31l-2 -2l-99 67l212 287h139z
" />
    <glyph glyph-name="seven" unicode="7" horiz-adv-x="524" 
d="M492 680v-81l-264 -599h-134l259 574h-339v106h478z" />
    <glyph glyph-name="eight" unicode="8" horiz-adv-x="626" 
d="M465 359c72 -34 113 -93 113 -169c0 -120 -101 -205 -265 -205s-265 85 -265 205c0 76 41 135 113 169c-54 30 -86 79 -86 144c0 113 98 192 238 192c139 0 237 -79 237 -192c0 -65 -32 -114 -85 -144zM313 601c-72 0 -121 -45 -121 -105s49 -106 121 -106
c71 0 121 47 121 106s-50 105 -121 105zM313 86c79 0 134 51 134 115c0 62 -55 110 -134 110s-134 -47 -134 -110c0 -65 55 -115 134 -115z" />
    <glyph glyph-name="nine" unicode="9" horiz-adv-x="617" 
d="M308 695c154 0 261 -107 261 -239c0 -59 -22 -107 -61 -169l-98 67c31 44 44 71 44 107c0 74 -60 138 -146 138c-85 0 -145 -64 -145 -139c0 -76 59 -139 145 -139c39 0 74 11 99 31l2 2l99 -67l-212 -287h-139l154 217h-4c-151 0 -259 100 -259 236
c0 137 108 242 260 242z" />
    <glyph glyph-name="zero.osf" 
d="M445 340l294 -295l-25 -25l-294 295l-295 -295l-25 25l295 295l-295 294l25 25l295 -294l294 294l25 -25z" />
    <glyph glyph-name="one.osf" 
d="M445 340l294 -295l-25 -25l-294 295l-295 -295l-25 25l295 295l-295 294l25 25l295 -294l294 294l25 -25z" />
    <glyph glyph-name="two.osf" 
d="M445 340l294 -295l-25 -25l-294 295l-295 -295l-25 25l295 295l-295 294l25 25l295 -294l294 294l25 -25z" />
    <glyph glyph-name="three.osf" 
d="M445 340l294 -295l-25 -25l-294 295l-295 -295l-25 25l295 295l-295 294l25 25l295 -294l294 294l25 -25z" />
    <glyph glyph-name="four.osf" 
d="M445 340l294 -295l-25 -25l-294 295l-295 -295l-25 25l295 295l-295 294l25 25l295 -294l294 294l25 -25z" />
    <glyph glyph-name="five.osf" 
d="M445 340l294 -295l-25 -25l-294 295l-295 -295l-25 25l295 295l-295 294l25 25l295 -294l294 294l25 -25z" />
    <glyph glyph-name="six.osf" 
d="M445 340l294 -295l-25 -25l-294 295l-295 -295l-25 25l295 295l-295 294l25 25l295 -294l294 294l25 -25z" />
    <glyph glyph-name="seven.osf" 
d="M445 340l294 -295l-25 -25l-294 295l-295 -295l-25 25l295 295l-295 294l25 25l295 -294l294 294l25 -25z" />
    <glyph glyph-name="eight.osf" 
d="M445 340l294 -295l-25 -25l-294 295l-295 -295l-25 25l295 295l-295 294l25 25l295 -294l294 294l25 -25z" />
    <glyph glyph-name="nine.osf" 
d="M445 340l294 -295l-25 -25l-294 295l-295 -295l-25 25l295 295l-295 294l25 25l295 -294l294 294l25 -25z" />
    <glyph glyph-name="zero.tf" 
d="M445 340l294 -295l-25 -25l-294 295l-295 -295l-25 25l295 295l-295 294l25 25l295 -294l294 294l25 -25z" />
    <glyph glyph-name="one.tf" 
d="M445 340l294 -295l-25 -25l-294 295l-295 -295l-25 25l295 295l-295 294l25 25l295 -294l294 294l25 -25z" />
    <glyph glyph-name="two.tf" 
d="M445 340l294 -295l-25 -25l-294 295l-295 -295l-25 25l295 295l-295 294l25 25l295 -294l294 294l25 -25z" />
    <glyph glyph-name="three.tf" 
d="M445 340l294 -295l-25 -25l-294 295l-295 -295l-25 25l295 295l-295 294l25 25l295 -294l294 294l25 -25z" />
    <glyph glyph-name="four.tf" 
d="M445 340l294 -295l-25 -25l-294 295l-295 -295l-25 25l295 295l-295 294l25 25l295 -294l294 294l25 -25z" />
    <glyph glyph-name="five.tf" 
d="M445 340l294 -295l-25 -25l-294 295l-295 -295l-25 25l295 295l-295 294l25 25l295 -294l294 294l25 -25z" />
    <glyph glyph-name="six.tf" 
d="M445 340l294 -295l-25 -25l-294 295l-295 -295l-25 25l295 295l-295 294l25 25l295 -294l294 294l25 -25z" />
    <glyph glyph-name="seven.tf" 
d="M445 340l294 -295l-25 -25l-294 295l-295 -295l-25 25l295 295l-295 294l25 25l295 -294l294 294l25 -25z" />
    <glyph glyph-name="eight.tf" 
d="M445 340l294 -295l-25 -25l-294 295l-295 -295l-25 25l295 295l-295 294l25 25l295 -294l294 294l25 -25z" />
    <glyph glyph-name="nine.tf" 
d="M445 340l294 -295l-25 -25l-294 295l-295 -295l-25 25l295 295l-295 294l25 25l295 -294l294 294l25 -25z" />
    <glyph glyph-name="zero.zero" horiz-adv-x="719" 
d="M353 695c192 0 306 -151 306 -355s-114 -355 -306 -355c-191 0 -306 151 -306 355s115 355 306 355zM354 585c-121 0 -184 -107 -184 -245c0 -51 9 -99 26 -137l245 358c-24 16 -53 24 -87 24zM354 95c120 0 183 107 183 245c0 48 -8 92 -23 129l-242 -354
c23 -13 51 -20 82 -20z" />
    <glyph glyph-name="zero.osf.zero" 
d="M445 340l294 -295l-25 -25l-294 295l-295 -295l-25 25l295 295l-295 294l25 25l295 -294l294 294l25 -25z" />
    <glyph glyph-name="fraction" unicode="&#x2044;" horiz-adv-x="483" 
d="M57 -11l-53 36l425 665l53 -34z" />
    <glyph glyph-name="onehalf" unicode="&#xbd;" 
d="M445 340l294 -295l-25 -25l-294 295l-295 -295l-25 25l295 295l-295 294l25 25l295 -294l294 294l25 -25z" />
    <glyph glyph-name="onequarter" unicode="&#xbc;" 
d="M445 340l294 -295l-25 -25l-294 295l-295 -295l-25 25l295 295l-295 294l25 25l295 -294l294 294l25 -25z" />
    <glyph glyph-name="threequarters" unicode="&#xbe;" 
d="M445 340l294 -295l-25 -25l-294 295l-295 -295l-25 25l295 295l-295 294l25 25l295 -294l294 294l25 -25z" />
    <glyph glyph-name="oneeighth" unicode="&#x215b;" 
d="M445 340l294 -295l-25 -25l-294 295l-295 -295l-25 25l295 295l-295 294l25 25l295 -294l294 294l25 -25z" />
    <glyph glyph-name="threeeighths" unicode="&#x215c;" 
d="M445 340l294 -295l-25 -25l-294 295l-295 -295l-25 25l295 295l-295 294l25 25l295 -294l294 294l25 -25z" />
    <glyph glyph-name="fiveeighths" unicode="&#x215d;" 
d="M445 340l294 -295l-25 -25l-294 295l-295 -295l-25 25l295 295l-295 294l25 25l295 -294l294 294l25 -25z" />
    <glyph glyph-name="seveneighths" unicode="&#x215e;" 
d="M445 340l294 -295l-25 -25l-294 295l-295 -295l-25 25l295 295l-295 294l25 25l295 -294l294 294l25 -25z" />
    <glyph glyph-name="zero.dnom" 
d="M445 340l294 -295l-25 -25l-294 295l-295 -295l-25 25l295 295l-295 294l25 25l295 -294l294 294l25 -25z" />
    <glyph glyph-name="one.dnom" 
d="M445 340l294 -295l-25 -25l-294 295l-295 -295l-25 25l295 295l-295 294l25 25l295 -294l294 294l25 -25z" />
    <glyph glyph-name="two.dnom" 
d="M445 340l294 -295l-25 -25l-294 295l-295 -295l-25 25l295 295l-295 294l25 25l295 -294l294 294l25 -25z" />
    <glyph glyph-name="three.dnom" 
d="M445 340l294 -295l-25 -25l-294 295l-295 -295l-25 25l295 295l-295 294l25 25l295 -294l294 294l25 -25z" />
    <glyph glyph-name="four.dnom" 
d="M445 340l294 -295l-25 -25l-294 295l-295 -295l-25 25l295 295l-295 294l25 25l295 -294l294 294l25 -25z" />
    <glyph glyph-name="five.dnom" 
d="M445 340l294 -295l-25 -25l-294 295l-295 -295l-25 25l295 295l-295 294l25 25l295 -294l294 294l25 -25z" />
    <glyph glyph-name="six.dnom" 
d="M445 340l294 -295l-25 -25l-294 295l-295 -295l-25 25l295 295l-295 294l25 25l295 -294l294 294l25 -25z" />
    <glyph glyph-name="seven.dnom" 
d="M445 340l294 -295l-25 -25l-294 295l-295 -295l-25 25l295 295l-295 294l25 25l295 -294l294 294l25 -25z" />
    <glyph glyph-name="eight.dnom" 
d="M445 340l294 -295l-25 -25l-294 295l-295 -295l-25 25l295 295l-295 294l25 25l295 -294l294 294l25 -25z" />
    <glyph glyph-name="nine.dnom" 
d="M445 340l294 -295l-25 -25l-294 295l-295 -295l-25 25l295 295l-295 294l25 25l295 -294l294 294l25 -25z" />
    <glyph glyph-name="zero.numr" 
d="M445 340l294 -295l-25 -25l-294 295l-295 -295l-25 25l295 295l-295 294l25 25l295 -294l294 294l25 -25z" />
    <glyph glyph-name="one.numr" 
d="M445 340l294 -295l-25 -25l-294 295l-295 -295l-25 25l295 295l-295 294l25 25l295 -294l294 294l25 -25z" />
    <glyph glyph-name="two.numr" 
d="M445 340l294 -295l-25 -25l-294 295l-295 -295l-25 25l295 295l-295 294l25 25l295 -294l294 294l25 -25z" />
    <glyph glyph-name="three.numr" 
d="M445 340l294 -295l-25 -25l-294 295l-295 -295l-25 25l295 295l-295 294l25 25l295 -294l294 294l25 -25z" />
    <glyph glyph-name="four.numr" 
d="M445 340l294 -295l-25 -25l-294 295l-295 -295l-25 25l295 295l-295 294l25 25l295 -294l294 294l25 -25z" />
    <glyph glyph-name="five.numr" 
d="M445 340l294 -295l-25 -25l-294 295l-295 -295l-25 25l295 295l-295 294l25 25l295 -294l294 294l25 -25z" />
    <glyph glyph-name="six.numr" 
d="M445 340l294 -295l-25 -25l-294 295l-295 -295l-25 25l295 295l-295 294l25 25l295 -294l294 294l25 -25z" />
    <glyph glyph-name="seven.numr" 
d="M445 340l294 -295l-25 -25l-294 295l-295 -295l-25 25l295 295l-295 294l25 25l295 -294l294 294l25 -25z" />
    <glyph glyph-name="eight.numr" 
d="M445 340l294 -295l-25 -25l-294 295l-295 -295l-25 25l295 295l-295 294l25 25l295 -294l294 294l25 -25z" />
    <glyph glyph-name="nine.numr" 
d="M445 340l294 -295l-25 -25l-294 295l-295 -295l-25 25l295 295l-295 294l25 25l295 -294l294 294l25 -25z" />
    <glyph glyph-name="zeroinferior" unicode="&#x2080;" 
d="M445 340l294 -295l-25 -25l-294 295l-295 -295l-25 25l295 295l-295 294l25 25l295 -294l294 294l25 -25z" />
    <glyph glyph-name="oneinferior" unicode="&#x2081;" 
d="M445 340l294 -295l-25 -25l-294 295l-295 -295l-25 25l295 295l-295 294l25 25l295 -294l294 294l25 -25z" />
    <glyph glyph-name="twoinferior" unicode="&#x2082;" 
d="M445 340l294 -295l-25 -25l-294 295l-295 -295l-25 25l295 295l-295 294l25 25l295 -294l294 294l25 -25z" />
    <glyph glyph-name="threeinferior" unicode="&#x2083;" 
d="M445 340l294 -295l-25 -25l-294 295l-295 -295l-25 25l295 295l-295 294l25 25l295 -294l294 294l25 -25z" />
    <glyph glyph-name="fourinferior" unicode="&#x2084;" 
d="M445 340l294 -295l-25 -25l-294 295l-295 -295l-25 25l295 295l-295 294l25 25l295 -294l294 294l25 -25z" />
    <glyph glyph-name="fiveinferior" unicode="&#x2085;" 
d="M445 340l294 -295l-25 -25l-294 295l-295 -295l-25 25l295 295l-295 294l25 25l295 -294l294 294l25 -25z" />
    <glyph glyph-name="sixinferior" unicode="&#x2086;" 
d="M445 340l294 -295l-25 -25l-294 295l-295 -295l-25 25l295 295l-295 294l25 25l295 -294l294 294l25 -25z" />
    <glyph glyph-name="seveninferior" unicode="&#x2087;" 
d="M445 340l294 -295l-25 -25l-294 295l-295 -295l-25 25l295 295l-295 294l25 25l295 -294l294 294l25 -25z" />
    <glyph glyph-name="eightinferior" unicode="&#x2088;" 
d="M445 340l294 -295l-25 -25l-294 295l-295 -295l-25 25l295 295l-295 294l25 25l295 -294l294 294l25 -25z" />
    <glyph glyph-name="nineinferior" unicode="&#x2089;" 
d="M445 340l294 -295l-25 -25l-294 295l-295 -295l-25 25l295 295l-295 294l25 25l295 -294l294 294l25 -25z" />
    <glyph glyph-name="zerosuperior" unicode="&#x2070;" 
d="M445 340l294 -295l-25 -25l-294 295l-295 -295l-25 25l295 295l-295 294l25 25l295 -294l294 294l25 -25z" />
    <glyph glyph-name="onesuperior" unicode="&#xb9;" 
d="M445 340l294 -295l-25 -25l-294 295l-295 -295l-25 25l295 295l-295 294l25 25l295 -294l294 294l25 -25z" />
    <glyph glyph-name="twosuperior" unicode="&#xb2;" 
d="M445 340l294 -295l-25 -25l-294 295l-295 -295l-25 25l295 295l-295 294l25 25l295 -294l294 294l25 -25z" />
    <glyph glyph-name="threesuperior" unicode="&#xb3;" 
d="M445 340l294 -295l-25 -25l-294 295l-295 -295l-25 25l295 295l-295 294l25 25l295 -294l294 294l25 -25z" />
    <glyph glyph-name="foursuperior" unicode="&#x2074;" 
d="M445 340l294 -295l-25 -25l-294 295l-295 -295l-25 25l295 295l-295 294l25 25l295 -294l294 294l25 -25z" />
    <glyph glyph-name="fivesuperior" unicode="&#x2075;" 
d="M445 340l294 -295l-25 -25l-294 295l-295 -295l-25 25l295 295l-295 294l25 25l295 -294l294 294l25 -25z" />
    <glyph glyph-name="sixsuperior" unicode="&#x2076;" 
d="M445 340l294 -295l-25 -25l-294 295l-295 -295l-25 25l295 295l-295 294l25 25l295 -294l294 294l25 -25z" />
    <glyph glyph-name="sevensuperior" unicode="&#x2077;" 
d="M445 340l294 -295l-25 -25l-294 295l-295 -295l-25 25l295 295l-295 294l25 25l295 -294l294 294l25 -25z" />
    <glyph glyph-name="eightsuperior" unicode="&#x2078;" 
d="M445 340l294 -295l-25 -25l-294 295l-295 -295l-25 25l295 295l-295 294l25 25l295 -294l294 294l25 -25z" />
    <glyph glyph-name="ninesuperior" unicode="&#x2079;" 
d="M445 340l294 -295l-25 -25l-294 295l-295 -295l-25 25l295 295l-295 294l25 25l295 -294l294 294l25 -25z" />
    <glyph glyph-name="asterisk" unicode="*" horiz-adv-x="424" 
d="M372 467l-32 -57l-95 58v-101h-67v101l-95 -58l-32 57l98 59l-98 59l32 58l95 -58v100h67v-100l95 58l32 -58l-97 -59z" />
    <glyph glyph-name="backslash" unicode="\" horiz-adv-x="405" 
d="M131 730l254 -890h-111l-254 890h111z" />
    <glyph glyph-name="bullet" unicode="&#x2022;" horiz-adv-x="331" 
d="M165 167c-70 0 -131 60 -131 130s61 130 131 130c71 0 133 -60 133 -130s-62 -130 -133 -130z" />
    <glyph glyph-name="colon" unicode=":" horiz-adv-x="209" 
d="M104 332c-42 0 -78 32 -78 76c0 42 36 75 78 75c43 0 79 -33 79 -75c0 -44 -36 -76 -79 -76zM104 -9c-42 0 -78 32 -78 76c0 42 36 75 78 75c43 0 79 -33 79 -75c0 -44 -36 -76 -79 -76z" />
    <glyph glyph-name="comma" unicode="," horiz-adv-x="212" 
d="M26 -114l53 118c-32 13 -48 36 -48 64c0 41 35 74 77 74c43 0 78 -33 78 -74c0 -18 -1 -27 -25 -71l-59 -111h-76z" />
    <glyph glyph-name="ellipsis" unicode="&#x2026;" horiz-adv-x="718" 
d="M104 -9c-42 0 -78 32 -78 76c0 42 36 75 78 75c43 0 79 -33 79 -75c0 -44 -36 -76 -79 -76zM355 -9c-42 0 -78 32 -78 76c0 42 36 75 78 75c43 0 79 -33 79 -75c0 -44 -36 -76 -79 -76zM613 -9c-42 0 -78 32 -78 76c0 42 36 75 78 75c43 0 79 -33 79 -75
c0 -44 -36 -76 -79 -76z" />
    <glyph glyph-name="exclam" unicode="!" horiz-adv-x="282" 
d="M209 581l-26 -371h-85l-26 371v99h137v-99zM141 142c43 0 79 -33 79 -75c0 -44 -36 -76 -79 -76c-42 0 -78 32 -78 76c0 42 36 75 78 75z" />
    <glyph glyph-name="exclamdown" unicode="&#xa1;" horiz-adv-x="282" 
d="M141 333c-42 0 -78 33 -78 75c0 44 36 76 78 76c43 0 79 -32 79 -76c0 -42 -36 -75 -79 -75zM72 -205v99l26 371h85l26 -371v-99h-137z" />
    <glyph glyph-name="numbersign" unicode="#" horiz-adv-x="761" 
d="M559 276h115v-104h-148l-53 -172h-120l54 172h-156l-53 -172h-120l54 172h-99v104h131l35 112h-111v104h144l59 189h120l-59 -189h155l59 189h120l-59 -189h102v-104h-135zM319 388l-35 -112h155l35 112h-155z" />
    <glyph glyph-name="period" unicode="." horiz-adv-x="209" 
d="M104 -9c-42 0 -78 32 -78 76c0 42 36 75 78 75c43 0 79 -33 79 -75c0 -44 -36 -76 -79 -76z" />
    <glyph glyph-name="periodcentered" unicode="&#xb7;" horiz-adv-x="209" 
d="M104 208c-42 0 -78 32 -78 76c0 42 36 75 78 75c43 0 79 -33 79 -75c0 -44 -36 -76 -79 -76z" />
    <glyph glyph-name="question" unicode="?" horiz-adv-x="534" 
d="M183 207l-9 155h74c70 0 124 45 124 114c0 67 -46 113 -114 113c-60 0 -106 -36 -114 -92h-116c11 117 91 195 225 195c131 0 231 -87 231 -215c0 -110 -77 -183 -197 -194l-5 -76h-99zM235 -9c-42 0 -78 32 -78 76c0 42 36 75 78 75c43 0 79 -33 79 -75
c0 -44 -36 -76 -79 -76z" />
    <glyph glyph-name="questiondown" unicode="&#xbf;" horiz-adv-x="534" 
d="M299 550c42 0 78 -32 78 -76c0 -42 -36 -75 -78 -75c-43 0 -79 33 -79 75c0 44 36 76 79 76zM351 334l9 -155h-74c-70 0 -124 -45 -124 -114c0 -67 46 -113 114 -113c60 0 106 36 114 92h116c-11 -117 -91 -195 -225 -195c-131 0 -231 87 -231 215c0 110 77 183 197 194
l5 76h99z" />
    <glyph glyph-name="quotedbl" unicode="&#x22;" horiz-adv-x="351" 
d="M148 680v-276h-108v276h108zM311 680v-276h-108v276h108z" />
    <glyph glyph-name="quotesingle" unicode="'" horiz-adv-x="188" 
d="M148 680v-276h-108v276h108z" />
    <glyph glyph-name="semicolon" unicode=";" horiz-adv-x="210" 
d="M105 332c-42 0 -78 32 -78 76c0 42 36 75 78 75c43 0 79 -33 79 -75c0 -44 -36 -76 -79 -76zM23 -114l53 118c-32 13 -48 36 -48 64c0 41 35 74 77 74c43 0 78 -33 78 -74c0 -18 -1 -27 -25 -71l-59 -111h-76z" />
    <glyph glyph-name="slash" unicode="/" horiz-adv-x="405" 
d="M131 -160h-111l254 890h111z" />
    <glyph glyph-name="underscore" unicode="_" horiz-adv-x="634" 
d="M33 -100h568v-101h-568v101z" />
    <glyph glyph-name="backslash.case" 
d="M445 340l294 -295l-25 -25l-294 295l-295 -295l-25 25l295 295l-295 294l25 25l295 -294l294 294l25 -25z" />
    <glyph glyph-name="bullet.case" 
d="M445 340l294 -295l-25 -25l-294 295l-295 -295l-25 25l295 295l-295 294l25 25l295 -294l294 294l25 -25z" />
    <glyph glyph-name="exclamdown.case" 
d="M445 340l294 -295l-25 -25l-294 295l-295 -295l-25 25l295 295l-295 294l25 25l295 -294l294 294l25 -25z" />
    <glyph glyph-name="periodcentered.case" 
d="M445 340l294 -295l-25 -25l-294 295l-295 -295l-25 25l295 295l-295 294l25 25l295 -294l294 294l25 -25z" />
    <glyph glyph-name="questiondown.case" 
d="M445 340l294 -295l-25 -25l-294 295l-295 -295l-25 25l295 295l-295 294l25 25l295 -294l294 294l25 -25z" />
    <glyph glyph-name="slash.case" 
d="M445 340l294 -295l-25 -25l-294 295l-295 -295l-25 25l295 295l-295 294l25 25l295 -294l294 294l25 -25z" />
    <glyph glyph-name="braceleft" unicode="{" horiz-adv-x="354" 
d="M233 561v-143c0 -64 -12 -98 -74 -117c62 -19 74 -52 74 -116v-144c0 -42 34 -71 86 -71v-113c-120 0 -201 74 -201 184v140c0 62 -24 69 -86 69v102c62 0 86 7 86 69v140c0 110 81 184 201 184v-113c-52 0 -86 -28 -86 -71z" />
    <glyph glyph-name="braceright" unicode="}" horiz-adv-x="367" 
d="M134 418v143c0 43 -34 71 -86 71v113c120 0 201 -74 201 -184v-140c0 -62 24 -69 86 -69v-102c-62 0 -86 -7 -86 -69v-140c0 -110 -81 -184 -201 -184v113c52 0 86 29 86 71v144c0 64 12 97 74 116c-62 19 -74 53 -74 117z" />
    <glyph glyph-name="bracketleft" unicode="[" horiz-adv-x="356" 
d="M177 -25h145v-111h-260v866h260v-111h-145v-644z" />
    <glyph glyph-name="bracketright" unicode="]" horiz-adv-x="353" 
d="M31 619v111h260v-866h-260v111h145v644h-145z" />
    <glyph glyph-name="parenleft" unicode="(" horiz-adv-x="363" 
d="M264 736l75 -75c-103 -105 -165 -203 -165 -359s62 -255 165 -359l-75 -75c-136 116 -208 264 -208 434s72 317 208 434z" />
    <glyph glyph-name="parenright" unicode=")" horiz-adv-x="354" 
d="M24 661l75 75c136 -117 208 -264 208 -434s-72 -318 -208 -434l-75 75c103 104 165 203 165 359s-62 254 -165 359z" />
    <glyph glyph-name="braceleft.case" 
d="M445 340l294 -295l-25 -25l-294 295l-295 -295l-25 25l295 295l-295 294l25 25l295 -294l294 294l25 -25z" />
    <glyph glyph-name="braceright.case" 
d="M445 340l294 -295l-25 -25l-294 295l-295 -295l-25 25l295 295l-295 294l25 25l295 -294l294 294l25 -25z" />
    <glyph glyph-name="bracketleft.case" 
d="M445 340l294 -295l-25 -25l-294 295l-295 -295l-25 25l295 295l-295 294l25 25l295 -294l294 294l25 -25z" />
    <glyph glyph-name="bracketright.case" 
d="M445 340l294 -295l-25 -25l-294 295l-295 -295l-25 25l295 295l-295 294l25 25l295 -294l294 294l25 -25z" />
    <glyph glyph-name="parenleft.case" 
d="M445 340l294 -295l-25 -25l-294 295l-295 -295l-25 25l295 295l-295 294l25 25l295 -294l294 294l25 -25z" />
    <glyph glyph-name="parenright.case" 
d="M445 340l294 -295l-25 -25l-294 295l-295 -295l-25 25l295 295l-295 294l25 25l295 -294l294 294l25 -25z" />
    <glyph glyph-name="emdash" unicode="&#x2014;" horiz-adv-x="977" 
d="M905 206v115h-832v-115h832z" />
    <glyph glyph-name="endash" unicode="&#x2013;" horiz-adv-x="643" 
d="M570 206v115h-497v-115h497z" />
    <glyph glyph-name="hyphen" unicode="-" horiz-adv-x="490" 
d="M417 205v115h-344v-115h344z" />
    <glyph glyph-name="emdash.case" 
d="M445 340l294 -295l-25 -25l-294 295l-295 -295l-25 25l295 295l-295 294l25 25l295 -294l294 294l25 -25z" />
    <glyph glyph-name="endash.case" 
d="M445 340l294 -295l-25 -25l-294 295l-295 -295l-25 25l295 295l-295 294l25 25l295 -294l294 294l25 -25z" />
    <glyph glyph-name="hyphen.case" 
d="M445 340l294 -295l-25 -25l-294 295l-295 -295l-25 25l295 295l-295 294l25 25l295 -294l294 294l25 -25z" />
    <glyph glyph-name="guillemotleft" unicode="&#xab;" horiz-adv-x="451" 
d="M142 252l78 -124v-29h-77l-113 153l113 153h77v-29zM325 252l78 -124v-29h-77l-113 153l113 153h77v-29z" />
    <glyph glyph-name="guillemotright" unicode="&#xbb;" horiz-adv-x="451" 
d="M48 405h77l113 -153l-113 -153h-77v29l78 124l-78 124v29zM231 405h77l113 -153l-113 -153h-77v29l78 124l-78 124v29z" />
    <glyph glyph-name="guilsinglleft" unicode="&#x2039;" horiz-adv-x="268" 
d="M142 252l78 -124v-29h-77l-113 153l113 153h77v-29z" />
    <glyph glyph-name="guilsinglright" unicode="&#x203a;" horiz-adv-x="268" 
d="M48 405h77l113 -153l-113 -153h-77v29l78 124l-78 124v29z" />
    <glyph glyph-name="quotedblbase" unicode="&#x201e;" horiz-adv-x="398" 
d="M26 -114l53 118c-32 13 -48 36 -48 64c0 41 35 74 77 74c43 0 78 -33 78 -74c0 -18 -1 -27 -25 -71l-59 -111h-76zM212 -114l53 118c-32 13 -48 36 -48 64c0 41 35 74 77 74c43 0 78 -33 78 -74c0 -18 -1 -27 -25 -71l-59 -111h-76z" />
    <glyph glyph-name="quotedblleft" unicode="&#x201c;" horiz-adv-x="395" 
d="M186 682l-53 -118c32 -13 48 -36 48 -64c0 -41 -35 -74 -77 -74c-43 0 -78 33 -78 74c0 18 1 27 25 71l59 111h76zM369 682l-53 -118c32 -13 48 -36 48 -64c0 -41 -35 -74 -77 -74c-43 0 -78 33 -78 74c0 18 1 27 25 71l59 111h76z" />
    <glyph glyph-name="quotedblright" unicode="&#x201d;" horiz-adv-x="395" 
d="M26 431l53 118c-32 13 -48 36 -48 64c0 41 35 74 77 74c43 0 78 -33 78 -74c0 -18 -1 -27 -25 -71l-59 -111h-76zM209 431l53 118c-32 13 -48 36 -48 64c0 41 35 74 77 74c43 0 78 -33 78 -74c0 -18 -1 -27 -25 -71l-59 -111h-76z" />
    <glyph glyph-name="quoteleft" unicode="&#x2018;" horiz-adv-x="209" 
d="M183 682l-53 -118c32 -13 48 -36 48 -64c0 -41 -35 -74 -77 -74c-43 0 -78 33 -78 74c0 18 1 27 25 71l59 111h76z" />
    <glyph glyph-name="quoteright" unicode="&#x2019;" horiz-adv-x="212" 
d="M26 431l53 118c-32 13 -48 36 -48 64c0 41 35 74 77 74c43 0 78 -33 78 -74c0 -18 -1 -27 -25 -71l-59 -111h-76z" />
    <glyph glyph-name="quotesinglbase" unicode="&#x201a;" horiz-adv-x="212" 
d="M26 -114l53 118c-32 13 -48 36 -48 64c0 41 35 74 77 74c43 0 78 -33 78 -74c0 -18 -1 -27 -25 -71l-59 -111h-76z" />
    <glyph glyph-name="guillemotleft.case" 
d="M445 340l294 -295l-25 -25l-294 295l-295 -295l-25 25l295 295l-295 294l25 25l295 -294l294 294l25 -25z" />
    <glyph glyph-name="guillemotright.case" 
d="M445 340l294 -295l-25 -25l-294 295l-295 -295l-25 25l295 295l-295 294l25 25l295 -294l294 294l25 -25z" />
    <glyph glyph-name="guilsinglleft.case" 
d="M445 340l294 -295l-25 -25l-294 295l-295 -295l-25 25l295 295l-295 294l25 25l295 -294l294 294l25 -25z" />
    <glyph glyph-name="guilsinglright.case" 
d="M445 340l294 -295l-25 -25l-294 295l-295 -295l-25 25l295 295l-295 294l25 25l295 -294l294 294l25 -25z" />
    <glyph glyph-name="space" unicode=" " horiz-adv-x="263" 
 />
    <glyph glyph-name="florin" unicode="&#x192;" horiz-adv-x="561" 
d="M438 578c-59 0 -91 -38 -99 -96l-14 -107h168v-98h-181l-24 -181c-16 -121 -81 -203 -196 -203c-32 0 -72 5 -109 15l16 101c24 -5 53 -9 71 -9c59 0 91 38 99 96l24 181h-130v98h143l14 107c16 121 81 203 196 203c32 0 72 -5 109 -15l-16 -101c-24 5 -53 9 -71 9z" />
    <glyph glyph-name="florin.tf" 
d="M445 340l294 -295l-25 -25l-294 295l-295 -295l-25 25l295 295l-295 294l25 25l295 -294l294 294l25 -25z" />
    <glyph glyph-name="cent" unicode="&#xa2;" horiz-adv-x="571" 
d="M410 177h118c-15 -104 -93 -177 -207 -187v-78h-70v80c-128 18 -217 116 -217 244c0 130 89 229 217 244v86h70v-86c38 -6 71 -20 97 -42v35h107v-177h-112c-11 42 -46 73 -92 81v-282c45 9 78 39 89 82zM149 236c0 -65 42 -119 102 -137v274c-60 -18 -102 -72 -102 -137
z" />
    <glyph glyph-name="dollar" unicode="$" horiz-adv-x="701" 
d="M635 188c0 -121 -89 -198 -236 -202v-74h-87v81c-63 12 -110 40 -144 78v-71h-112v222h112c43 -60 81 -101 144 -118v185l-39 7c-136 21 -201 91 -201 194c0 121 91 201 240 205v78h87v-85c50 -11 92 -33 123 -67v59h103v-201h-110c-24 44 -59 84 -116 102v-192l24 -4
c134 -22 212 -84 212 -197zM198 496c0 -54 39 -80 114 -93v188c-74 -5 -114 -40 -114 -95zM399 275v-179c68 5 112 38 112 86c0 39 -25 79 -107 92z" />
    <glyph glyph-name="Euro" unicode="&#x20ac;" horiz-adv-x="870" 
d="M694 264h124c-31 -168 -169 -278 -338 -278c-156 0 -295 95 -344 237h-89v82h71c-1 11 -2 23 -2 35c0 11 0 22 1 33h-70v82h88c48 143 184 239 337 239c94 0 174 -29 229 -84v70h112v-264h-112c-26 103 -116 163 -222 163c-93 0 -171 -48 -210 -124h297l-21 -82h-301
c-1 -11 -2 -22 -2 -33c0 -12 1 -24 2 -35h285l-20 -82h-239c40 -75 118 -122 210 -122c105 0 189 60 214 163z" />
    <glyph glyph-name="sterling" unicode="&#xa3;" horiz-adv-x="615" 
d="M565 211v-211h-531v74c40 55 66 129 69 202h-69v101h55c-6 25 -12 52 -12 79c0 143 98 239 245 239c135 0 220 -81 235 -205h-117c-12 63 -51 103 -118 103c-78 0 -130 -46 -130 -128c0 -33 8 -62 15 -88h193v-101h-183c-6 -60 -25 -119 -59 -175h291v110h116z" />
    <glyph glyph-name="yen" unicode="&#xa5;" horiz-adv-x="772" 
d="M682 574l-167 -265h109v-68h-152l-8 -12v-18h160v-67h-160v-38h90v-106h-307v106h90v38h-189v67h189v18l-8 12h-181v68h138l-168 265h-103v106h330v-106h-90l145 -230l144 230h-88v106h330v-106h-104z" />
    <glyph glyph-name="cent.tf" 
d="M445 340l294 -295l-25 -25l-294 295l-295 -295l-25 25l295 295l-295 294l25 25l295 -294l294 294l25 -25z" />
    <glyph glyph-name="dollar.tf" 
d="M445 340l294 -295l-25 -25l-294 295l-295 -295l-25 25l295 295l-295 294l25 25l295 -294l294 294l25 -25z" />
    <glyph glyph-name="Euro.tf" 
d="M445 340l294 -295l-25 -25l-294 295l-295 -295l-25 25l295 295l-295 294l25 25l295 -294l294 294l25 -25z" />
    <glyph glyph-name="sterling.tf" 
d="M445 340l294 -295l-25 -25l-294 295l-295 -295l-25 25l295 295l-295 294l25 25l295 -294l294 294l25 -25z" />
    <glyph glyph-name="yen.tf" 
d="M445 340l294 -295l-25 -25l-294 295l-295 -295l-25 25l295 295l-295 294l25 25l295 -294l294 294l25 -25z" />
    <glyph glyph-name="asciitilde" unicode="~" horiz-adv-x="445" 
d="M318 404h102c0 -134 -114 -163 -183 -123l-56 34c-37 23 -55 -2 -55 -30h-101c0 134 114 163 183 124l55 -35c37 -22 55 3 55 30z" />
    <glyph glyph-name="divide" unicode="&#xf7;" horiz-adv-x="685" 
d="M342 456c-37 0 -68 29 -68 66c0 38 31 66 68 66c38 0 70 -28 70 -66c0 -37 -32 -66 -70 -66zM104 383h476v-106h-476v106zM342 77c-37 0 -68 29 -68 66s31 66 68 66c38 0 70 -29 70 -66s-32 -66 -70 -66z" />
    <glyph glyph-name="equal" unicode="=" horiz-adv-x="691" 
d="M586 369h-482v107h482v-107zM586 171h-482v106h482v-106z" />
    <glyph glyph-name="greater" unicode="&#x3e;" horiz-adv-x="545" 
d="M493 247l-422 -193v116l294 135l-294 135v115l422 -193v-115z" />
    <glyph glyph-name="less" unicode="&#x3c;" horiz-adv-x="545" 
d="M474 555v-115l-294 -135l294 -135v-116l-422 193v115z" />
    <glyph glyph-name="minus" unicode="&#x2212;" horiz-adv-x="685" 
d="M104 383h476v-106h-476v106z" />
    <glyph glyph-name="multiply" unicode="&#xd7;" horiz-adv-x="677" 
d="M560 176l-76 -76l-145 146l-146 -146l-76 76l146 146l-146 145l76 76l146 -145l145 145l76 -76l-145 -145z" />
    <glyph glyph-name="percent" unicode="%" horiz-adv-x="1126" 
d="M298 695c110 0 196 -78 196 -193c0 -117 -86 -196 -196 -196c-111 0 -197 79 -197 196c0 115 86 193 197 193zM372 -11l-53 36l425 665l53 -34zM298 389c60 0 109 45 109 113c0 65 -49 110 -109 110c-61 0 -110 -45 -110 -110c0 -68 49 -113 110 -113zM828 374
c111 0 197 -79 197 -194c0 -117 -86 -195 -197 -195c-110 0 -196 78 -196 195c0 115 86 194 196 194zM828 68c61 0 110 45 110 112c0 66 -49 111 -110 111c-60 0 -109 -45 -109 -111c0 -67 49 -112 109 -112z" />
    <glyph glyph-name="perthousand" unicode="&#x2030;" horiz-adv-x="1583" 
d="M298 695c110 0 196 -78 196 -193c0 -117 -86 -196 -196 -196c-111 0 -197 79 -197 196c0 115 86 193 197 193zM372 -11l-53 36l425 665l53 -34zM298 389c60 0 109 45 109 113c0 65 -49 110 -109 110c-61 0 -110 -45 -110 -110c0 -68 49 -113 110 -113zM828 374
c111 0 197 -79 197 -194c0 -117 -86 -195 -197 -195c-110 0 -196 78 -196 195c0 115 86 194 196 194zM1285 374c111 0 197 -79 197 -194c0 -117 -86 -195 -197 -195c-110 0 -196 78 -196 195c0 115 86 194 196 194zM828 68c61 0 110 45 110 112c0 66 -49 111 -110 111
c-60 0 -109 -45 -109 -111c0 -67 49 -112 109 -112zM1285 68c61 0 110 45 110 112c0 66 -49 111 -110 111c-60 0 -109 -45 -109 -111c0 -67 49 -112 109 -112z" />
    <glyph glyph-name="plus" unicode="+" horiz-adv-x="685" 
d="M398 277v-177h-111v177h-183v106h183v177h111v-177h183v-106h-183z" />
    <glyph glyph-name="plusminus" unicode="&#xb1;" horiz-adv-x="685" 
d="M580 322h-182v-137h-111v137h-183v107h183v138h111v-138h182v-107zM580 142v-107h-476v107h476z" />
    <glyph glyph-name="arrowdown" unicode="&#x2193;" horiz-adv-x="779" 
d="M445 680v-488l212 217l77 -76l-345 -345l-344 345l76 76l214 -218v489h110z" />
    <glyph glyph-name="arrowdownleft" unicode="&#x2199;" horiz-adv-x="795" 
d="M275 108h303v-108h-488v488h108v-302l494 494l78 -77z" />
    <glyph glyph-name="arrowdownright" unicode="&#x2198;" horiz-adv-x="798" 
d="M106 680l494 -494v302h108v-488h-488v108h303l-495 495z" />
    <glyph glyph-name="arrowleft" unicode="&#x2190;" horiz-adv-x="766" 
d="M237 287l218 -214l-76 -76l-345 344l345 345l76 -77l-217 -212h488v-110h-489z" />
    <glyph glyph-name="arrowright" unicode="&#x2192;" horiz-adv-x="766" 
d="M40 397h488l-217 212l76 77l345 -345l-345 -344l-76 76l218 214h-489v110z" />
    <glyph glyph-name="arrowup" unicode="&#x2191;" horiz-adv-x="779" 
d="M335 489l-214 -218l-76 76l344 345l345 -345l-77 -76l-212 217v-488h-110v489z" />
    <glyph glyph-name="arrowupleft" unicode="&#x2196;" horiz-adv-x="798" 
d="M692 0l-494 494v-302h-108v488h488v-108h-303l495 -495z" />
    <glyph glyph-name="arrowupright" unicode="&#x2197;" horiz-adv-x="804" 
d="M529 572h-303v108h488v-488h-108v302l-494 -494l-78 77z" />
    <glyph glyph-name="arrowdown.ss05" horiz-adv-x="700" 
d="M350 141l-259 261l71 70l188 -189l188 188l71 -71z" />
    <glyph glyph-name="arrowleft.ss05" horiz-adv-x="570" 
d="M246 337l188 -188l-71 -71l-259 259l261 259l70 -71z" />
    <glyph glyph-name="arrowright.ss05" horiz-adv-x="570" 
d="M466 336l-259 -258l-71 71l188 188l-189 188l70 71z" />
    <glyph glyph-name="arrowup.ss05" horiz-adv-x="700" 
d="M538 188l-188 188l-188 -189l-71 70l260 261l258 -259z" />
    <glyph glyph-name="ampersand" unicode="&#x26;" horiz-adv-x="756" 
d="M634 286l-67 -133l137 -111v-42h-152l-60 56c-56 -47 -127 -70 -205 -70c-151 0 -251 85 -251 210c0 81 47 146 121 183c-35 43 -50 80 -50 126c0 111 87 190 201 190c50 0 91 -15 121 -40v25h103v-181h-103c-19 64 -53 93 -105 93c-58 0 -97 -36 -97 -90
c0 -59 46 -108 141 -187l117 -95l31 66h-64v105h271v-105h-89zM287 88c44 0 90 13 128 40l-148 138l-40 38c-49 -23 -79 -61 -79 -107c0 -60 60 -109 139 -109z" />
    <glyph glyph-name="asciicircum" unicode="^" horiz-adv-x="413" 
d="M390 441h-106l-77 153l-78 -153h-106l132 239h103z" />
    <glyph glyph-name="at" unicode="@" horiz-adv-x="997" 
d="M701 397v-191c0 -63 23 -91 63 -91c59 0 85 51 85 131c0 195 -148 337 -345 337s-354 -150 -354 -343c0 -194 159 -342 348 -342c80 0 159 26 221 75l46 -71c-74 -55 -168 -85 -265 -85c-239 0 -436 179 -436 423c0 242 195 424 440 424c246 0 429 -174 429 -416
c0 -124 -48 -219 -169 -219c-74 0 -116 27 -139 66c-35 -41 -89 -66 -149 -66c-115 0 -202 91 -202 207c0 117 87 208 210 208c77 0 141 -20 218 -43zM492 121c35 0 80 15 109 62c-1 15 -2 31 -2 46v104c-45 13 -77 21 -107 21c-57 0 -114 -44 -114 -117s56 -116 114 -116z
" />
    <glyph glyph-name="bar" unicode="|" horiz-adv-x="319" 
d="M214 730v-890h-108v890h108z" />
    <glyph glyph-name="brokenbar" unicode="&#xa6;" horiz-adv-x="319" 
d="M214 336h-108v394h108v-394zM214 -160h-108v394h108v-394z" />
    <glyph glyph-name="copyright" unicode="&#xa9;" horiz-adv-x="840" 
d="M420 695c198 0 364 -152 364 -355s-166 -355 -364 -355s-364 152 -364 355s166 355 364 355zM419 48c158 0 296 128 296 292s-138 292 -296 292s-295 -128 -295 -292s137 -292 295 -292zM421 249c37 0 67 21 78 51h90c-15 -80 -83 -132 -167 -132c-99 0 -175 72 -175 170
s76 171 166 171c35 0 63 -11 86 -27v21h83v-126h-83c-15 30 -41 50 -78 50c-50 0 -88 -39 -88 -89c0 -49 38 -89 88 -89z" />
    <glyph glyph-name="dagger" unicode="&#x2020;" horiz-adv-x="407" 
d="M242 525v-216h-77v216h-118v77h118v118h77v-118h118v-77h-118z" />
    <glyph glyph-name="daggerdbl" unicode="&#x2021;" horiz-adv-x="407" 
d="M242 487h118v-77h-118v-101h-77v101h-118v77h118v60h-118v77h118v96h77v-96h118v-77h-118v-60z" />
    <glyph glyph-name="degree" unicode="&#xb0;" horiz-adv-x="387" 
d="M193 695c100 0 173 -72 173 -168c0 -98 -73 -169 -173 -169s-173 71 -173 169c0 96 73 168 173 168zM193 434c52 0 95 42 95 93c0 50 -43 92 -95 92c-51 0 -94 -42 -94 -92c0 -51 43 -93 94 -93z" />
    <glyph glyph-name="uni2116" unicode="&#x2116;" horiz-adv-x="1417" 
d="M819 680v-106h-85v-574h-94l-387 457v-351h85v-106h-291v106h86v468h-86v106h168l399 -476v370h-86v106h291zM1115 174c-144 0 -256 107 -256 251c0 143 112 248 256 248c143 0 256 -105 256 -248c0 -144 -113 -251 -256 -251zM1115 568c-82 0 -141 -63 -141 -143
c0 -82 59 -146 141 -146c80 0 140 64 140 146c0 80 -60 143 -140 143zM871 102h478v-102h-478v102z" />
    <glyph glyph-name="paragraph" unicode="&#xb6;" horiz-adv-x="814" 
d="M784 574h-87v-734h-119v737h-98v-737h-120v372h-82c-142 0 -254 97 -254 240c0 137 112 228 254 228h506v-106zM361 577h-82c-81 0 -137 -51 -137 -126c0 -78 56 -130 137 -130h82v256z" />
    <glyph glyph-name="uni2117" unicode="&#x2117;" horiz-adv-x="840" 
d="M420 695c198 0 364 -152 364 -355s-166 -355 -364 -355s-364 152 -364 355s166 355 364 355zM419 48c158 0 296 128 296 292s-138 292 -296 292s-295 -128 -295 -292s137 -292 295 -292zM278 505h181c78 0 131 -45 131 -114s-53 -111 -133 -111h-63v-92h-116v68h46v182
h-46v67zM393 343h65c37 0 59 19 59 49c0 28 -22 47 -59 47h-65v-96z" />
    <glyph glyph-name="registered" unicode="&#xae;" horiz-adv-x="566" 
d="M283 692c136 0 250 -104 250 -244c0 -139 -114 -243 -250 -243s-250 104 -250 243c0 140 114 244 250 244zM282 248c108 0 202 89 202 200c0 112 -94 202 -202 202s-201 -90 -201 -202c0 -111 93 -200 201 -200zM374 389h35v-45h-86v39l-17 26h-10h-44v-20h1v-45h-84v45
h32v134h-32v45h129c52 0 90 -32 90 -81c0 -29 -14 -52 -36 -65zM253 456h45c23 0 38 12 38 32c0 18 -15 31 -38 31h-45v-63z" />
    <glyph glyph-name="section" unicode="&#xa7;" horiz-adv-x="544" 
d="M511 228c0 -61 -31 -101 -75 -124c21 -29 31 -62 31 -99c0 -105 -77 -165 -170 -165c-54 0 -96 18 -128 44v-33h-103v174h106c22 -46 50 -81 98 -81c44 0 78 24 78 65c0 33 -19 56 -60 74l-115 54c-107 49 -140 100 -140 166c0 62 31 101 75 124c-21 29 -31 62 -31 99
c0 104 86 164 177 164c46 0 81 -12 107 -30v20h103v-174h-103c-15 46 -38 81 -88 81c-43 0 -76 -25 -76 -65c0 -33 18 -55 59 -74l115 -54c106 -50 140 -100 140 -166zM348 171l3 -1c26 7 44 29 44 56c0 31 -26 53 -75 76l-124 58l-2 1c-27 -7 -45 -29 -45 -57
c0 -30 26 -53 75 -76z" />
    <glyph glyph-name="trademark" unicode="&#x2122;" horiz-adv-x="765" 
d="M323 680v-104h-61v41h-57v-175h52v-54h-168v54h51v175h-56v-41h-61v104h300zM709 626v-184h33v-54h-139v54h40v110l-79 -122h-36v1l-79 121v-110h32v-54h-139v54h42v184h-42v54h89l115 -172l114 172h82v-54h-33z" />
    <glyph glyph-name="at.case" 
d="M445 340l294 -295l-25 -25l-294 295l-295 -295l-25 25l295 295l-295 294l25 25l295 -294l294 294l25 -25z" />
    <glyph glyph-name="bar.case" 
d="M445 340l294 -295l-25 -25l-294 295l-295 -295l-25 25l295 295l-295 294l25 25l295 -294l294 294l25 -25z" />
    <glyph glyph-name="brokenbar.case" 
d="M445 340l294 -295l-25 -25l-294 295l-295 -295l-25 25l295 295l-295 294l25 25l295 -294l294 294l25 -25z" />
    <glyph glyph-name="registered.ss07" horiz-adv-x="840" 
d="M420 695c198 0 364 -152 364 -355s-166 -355 -364 -355s-364 152 -364 355s166 355 364 355zM419 48c158 0 296 128 296 292s-138 292 -296 292s-295 -128 -295 -292s137 -292 295 -292zM536 260h58v-68h-131v56l-25 37h-61v-93h-115v68h45v181h-45v68h179
c77 0 129 -45 129 -114c0 -45 -23 -79 -62 -96zM376 348h63c37 0 58 19 58 48c0 28 -21 47 -58 47h-63v-95z" />
    <glyph glyph-name="acute" unicode="&#xb4;" 
d="M445 340l294 -295l-25 -25l-294 295l-295 -295l-25 25l295 295l-295 294l25 25l295 -294l294 294l25 -25z" />
    <glyph glyph-name="breve" unicode="&#x2d8;" 
d="M445 340l294 -295l-25 -25l-294 295l-295 -295l-25 25l295 295l-295 294l25 25l295 -294l294 294l25 -25z" />
    <glyph glyph-name="caron" unicode="&#x2c7;" 
d="M445 340l294 -295l-25 -25l-294 295l-295 -295l-25 25l295 295l-295 294l25 25l295 -294l294 294l25 -25z" />
    <glyph glyph-name="cedilla" unicode="&#xb8;" 
d="M445 340l294 -295l-25 -25l-294 295l-295 -295l-25 25l295 295l-295 294l25 25l295 -294l294 294l25 -25z" />
    <glyph glyph-name="circumflex" unicode="&#x2c6;" 
d="M445 340l294 -295l-25 -25l-294 295l-295 -295l-25 25l295 295l-295 294l25 25l295 -294l294 294l25 -25z" />
    <glyph glyph-name="dieresis" unicode="&#xa8;" horiz-adv-x="600" 
d="M196 701c40 0 73 -31 73 -71c0 -39 -33 -70 -73 -70s-73 31 -73 70c0 40 33 71 73 71zM404 701c40 0 73 -31 73 -71c0 -39 -33 -70 -73 -70s-73 31 -73 70c0 40 33 71 73 71z" />
    <glyph glyph-name="dotaccent" unicode="&#x2d9;" 
d="M445 340l294 -295l-25 -25l-294 295l-295 -295l-25 25l295 295l-295 294l25 25l295 -294l294 294l25 -25z" />
    <glyph glyph-name="grave" unicode="`" 
d="M445 340l294 -295l-25 -25l-294 295l-295 -295l-25 25l295 295l-295 294l25 25l295 -294l294 294l25 -25z" />
    <glyph glyph-name="hungarumlaut" unicode="&#x2dd;" 
d="M445 340l294 -295l-25 -25l-294 295l-295 -295l-25 25l295 295l-295 294l25 25l295 -294l294 294l25 -25z" />
    <glyph glyph-name="macron" unicode="&#xaf;" 
d="M445 340l294 -295l-25 -25l-294 295l-295 -295l-25 25l295 295l-295 294l25 25l295 -294l294 294l25 -25z" />
    <glyph glyph-name="ogonek" unicode="&#x2db;" 
d="M445 340l294 -295l-25 -25l-294 295l-295 -295l-25 25l295 295l-295 294l25 25l295 -294l294 294l25 -25z" />
    <glyph glyph-name="ring" unicode="&#x2da;" 
d="M445 340l294 -295l-25 -25l-294 295l-295 -295l-25 25l295 295l-295 294l25 25l295 -294l294 294l25 -25z" />
    <glyph glyph-name="tilde" unicode="&#x2dc;" 
d="M445 340l294 -295l-25 -25l-294 295l-295 -295l-25 25l295 295l-295 294l25 25l295 -294l294 294l25 -25z" />
    <glyph glyph-name="caron.alt" 
d="M445 340l294 -295l-25 -25l-294 295l-295 -295l-25 25l295 295l-295 294l25 25l295 -294l294 294l25 -25z" />
    <glyph glyph-name="acute.case" 
d="M445 340l294 -295l-25 -25l-294 295l-295 -295l-25 25l295 295l-295 294l25 25l295 -294l294 294l25 -25z" />
    <glyph glyph-name="breve.case" 
d="M445 340l294 -295l-25 -25l-294 295l-295 -295l-25 25l295 295l-295 294l25 25l295 -294l294 294l25 -25z" />
    <glyph glyph-name="caron.case" 
d="M445 340l294 -295l-25 -25l-294 295l-295 -295l-25 25l295 295l-295 294l25 25l295 -294l294 294l25 -25z" />
    <glyph glyph-name="circumflex.case" 
d="M445 340l294 -295l-25 -25l-294 295l-295 -295l-25 25l295 295l-295 294l25 25l295 -294l294 294l25 -25z" />
    <glyph glyph-name="dieresis.case" horiz-adv-x="600" 
d="M196 891c40 0 73 -31 73 -71c0 -39 -33 -70 -73 -70s-73 31 -73 70c0 40 33 71 73 71zM404 891c40 0 73 -31 73 -71c0 -39 -33 -70 -73 -70s-73 31 -73 70c0 40 33 71 73 71z" />
    <glyph glyph-name="dotaccent.case" 
d="M445 340l294 -295l-25 -25l-294 295l-295 -295l-25 25l295 295l-295 294l25 25l295 -294l294 294l25 -25z" />
    <glyph glyph-name="grave.case" 
d="M445 340l294 -295l-25 -25l-294 295l-295 -295l-25 25l295 295l-295 294l25 25l295 -294l294 294l25 -25z" />
    <glyph glyph-name="hungarumlaut.case" 
d="M445 340l294 -295l-25 -25l-294 295l-295 -295l-25 25l295 295l-295 294l25 25l295 -294l294 294l25 -25z" />
    <glyph glyph-name="macron.case" 
d="M445 340l294 -295l-25 -25l-294 295l-295 -295l-25 25l295 295l-295 294l25 25l295 -294l294 294l25 -25z" />
    <glyph glyph-name="ring.case" 
d="M445 340l294 -295l-25 -25l-294 295l-295 -295l-25 25l295 295l-295 294l25 25l295 -294l294 294l25 -25z" />
    <glyph glyph-name="tilde.case" 
d="M445 340l294 -295l-25 -25l-294 295l-295 -295l-25 25l295 295l-295 294l25 25l295 -294l294 294l25 -25z" />
    <glyph glyph-name="uni0326" unicode="&#x326;" horiz-adv-x="0" 
d="M445 340l294 -295l-25 -25l-294 295l-295 -295l-25 25l295 295l-295 294l25 25l295 -294l294 294l25 -25z" />
    </font>
</defs>
</svg>
